<?xml version="1.0" standalone="no"?>
<!DOCTYPE svg PUBLIC "-//W3C//DTD SVG 20010904//EN"
 "http://www.w3.org/TR/2001/REC-SVG-20010904/DTD/svg10.dtd">
<svg version="1.0" xmlns="http://www.w3.org/2000/svg"
 width="600.000000pt" height="600.000000pt" viewBox="0 0 600.000000 600.000000"
 preserveAspectRatio="xMidYMid meet">
<metadata>
Created by potrace 1.15, written by Peter Selinger 2001-2017
</metadata>
<g transform="translate(0.000000,600.000000) scale(0.100000,-0.100000)"
fill="#000000" stroke="none">
<path d="M1 4868 c1 -623 5 -1115 9 -1093 23 115 97 251 177 326 129 122 310
189 472 175 145 -13 294 -86 400 -195 l54 -55 -49 -44 c-27 -23 -72 -61 -101
-83 l-51 -40 -47 50 c-66 70 -137 103 -234 109 -111 6 -177 -20 -258 -104 -53
-55 -66 -75 -84 -135 -54 -178 23 -354 189 -432 126 -59 281 -28 387 77 25 25
49 46 53 46 7 0 29 -17 133 -103 l59 -49 -29 -36 c-72 -90 -180 -160 -306
-198 -82 -24 -250 -24 -325 1 -150 49 -276 141 -347 253 -37 57 -80 163 -93
227 -4 22 -8 -771 -9 -1762 l-1 -1803 3000 0 3000 0 -1 1018 c-1 559 -4 1004
-8 987 -14 -54 -60 -132 -102 -173 -83 -78 -235 -117 -364 -93 -136 26 -261
100 -311 186 l-23 40 86 70 c47 39 92 73 99 78 9 5 27 -8 55 -38 87 -95 221
-124 276 -61 29 34 29 64 0 105 -21 32 -47 47 -210 127 -99 49 -187 132 -224
212 -23 48 -27 71 -27 147 -1 82 2 95 31 151 36 69 81 112 154 150 146 73 357
43 465 -67 l37 -38 -34 -38 c-19 -21 -58 -63 -86 -93 l-51 -54 -46 38 c-68 55
-142 61 -186 14 -26 -29 -26 -78 2 -113 13 -17 74 -53 157 -93 189 -91 270
-172 300 -299 5 -23 9 752 10 1900 l1 1937 -3000 0 -3000 0 1 -1132z m5134
-793 c105 -88 240 -201 300 -253 148 -125 152 -128 185 -152 l30 -21 2 303 3
303 133 3 132 3 0 -597 c0 -567 -1 -596 -17 -583 -10 8 -133 110 -273 229
-140 118 -299 252 -353 297 -55 46 -103 81 -108 77 -5 -3 -9 -138 -9 -310 l0
-305 -127 3 -128 3 -3 599 -2 600 22 -20 c13 -12 109 -92 213 -179z m-3277
133 c16 -29 46 -82 67 -118 49 -84 56 -96 162 -280 49 -85 134 -231 188 -325
54 -93 107 -185 116 -203 10 -18 22 -38 27 -45 5 -7 21 -33 35 -58 13 -25 31
-55 38 -67 7 -12 10 -25 5 -29 -8 -8 -1310 -15 -1338 -7 -10 3 -18 10 -18 15
0 6 29 60 65 120 36 61 65 112 65 114 0 2 17 32 38 66 38 63 211 361 260 449
14 25 44 77 67 115 23 39 72 123 109 188 37 64 71 117 76 117 5 0 22 -24 38
-52z m1024 -405 l3 -458 230 -5 230 -5 3 -127 3 -126 -73 -6 c-40 -3 -203 -5
-363 -3 l-290 2 -3 593 -2 592 130 0 130 0 2 -457z m659 302 c37 -82 76 -170
88 -195 11 -25 38 -85 60 -135 22 -49 44 -91 49 -93 4 -1 43 78 87 175 43 98
90 205 105 238 15 33 38 84 50 113 l22 52 144 0 c92 0 144 -4 144 -10 0 -9
-73 -168 -190 -415 -28 -58 -146 -310 -288 -612 -36 -79 -70 -143 -74 -143 -5
0 -12 10 -17 23 -5 12 -38 83 -74 157 -35 74 -110 232 -165 350 -55 118 -123
265 -152 325 -83 175 -150 317 -150 322 0 2 66 2 147 1 l147 -3 67 -150z
m1129 -435 c0 -324 -3 -590 -7 -591 -42 -6 -187 -8 -220 -4 l-43 6 0 590 0
589 135 0 135 0 0 -590z m-2728 -851 c90 -157 165 -286 248 -429 40 -69 82
-141 93 -160 10 -19 36 -64 57 -100 21 -36 47 -81 58 -100 10 -19 49 -86 86
-149 37 -62 65 -118 64 -123 -5 -14 -1364 -11 -1360 4 3 10 62 114 190 335 19
32 44 76 57 98 12 22 55 96 95 165 40 69 84 145 98 170 14 25 51 88 82 140 31
52 78 134 106 181 27 48 52 85 56 82 5 -2 36 -53 70 -114z m-1620 -116 l3
-228 240 0 240 0 3 228 2 227 130 0 130 0 0 -590 c0 -324 -3 -590 -7 -590 -30
-1 -212 -2 -230 -1 l-23 1 0 230 0 230 -245 0 -245 0 0 -230 c0 -126 -3 -231
-7 -231 -12 -2 -41 -2 -150 -1 l-103 2 0 590 0 590 130 0 130 0 2 -227z m2943
194 c78 -38 130 -89 172 -169 24 -46 27 -65 28 -143 0 -77 -4 -98 -27 -147
-30 -65 -103 -143 -153 -164 -19 -8 -35 -19 -35 -25 0 -10 29 -50 136 -189
167 -216 232 -305 228 -312 -3 -5 -71 -8 -150 -7 -161 1 -148 -4 -214 83 -22
28 -76 98 -120 156 -45 58 -105 135 -133 173 -28 37 -54 67 -59 67 -4 0 -8
-105 -8 -234 0 -204 -2 -235 -16 -240 -30 -11 -229 -7 -242 6 -9 9 -12 153
-12 588 0 317 3 580 7 583 3 4 124 7 267 7 l262 0 69 -33z m1055 2 c67 -33
126 -90 165 -161 28 -49 30 -61 30 -153 0 -81 -4 -109 -22 -147 -24 -52 -111
-144 -161 -170 l-33 -18 30 -42 c28 -39 211 -281 271 -356 62 -79 71 -92 65
-102 -4 -6 -62 -10 -143 -10 -152 0 -164 4 -205 65 -12 18 -78 106 -147 195
-69 89 -134 174 -145 191 -41 59 -44 44 -47 -208 l-3 -238 -105 -3 c-58 -2
-115 0 -127 3 l-23 5 0 591 0 590 273 -3 c271 -3 272 -3 327 -29z m720 -558
c0 -528 -2 -589 -16 -595 -9 -3 -64 -6 -124 -6 -79 0 -111 4 -119 14 -8 10
-11 171 -11 580 0 311 3 573 6 581 5 12 30 15 135 15 l129 0 0 -589z"/>
<path d="M1786 3704 c-16 -27 -40 -69 -54 -93 -13 -25 -38 -68 -55 -95 -61
-102 -97 -168 -97 -177 0 -11 467 -12 474 -1 3 5 -16 45 -42 89 -26 45 -72
124 -102 178 -30 53 -64 108 -76 122 l-21 26 -27 -49z"/>
<path d="M1814 2338 c-26 -46 -61 -107 -78 -136 -17 -29 -38 -65 -46 -80 -8
-15 -26 -44 -38 -64 -13 -21 -21 -42 -17 -48 8 -12 461 -14 469 -1 3 4 -10 33
-28 64 -19 31 -36 60 -38 65 -12 30 -164 282 -170 282 -4 0 -28 -37 -54 -82z"/>
<path d="M2942 2692 c-9 -6 -12 -38 -10 -123 l3 -114 85 -3 c98 -3 147 13 173
58 34 57 13 136 -45 166 -36 18 -186 30 -206 16z"/>
<path d="M4035 2690 l-50 -5 0 -115 0 -115 87 -3 c137 -4 191 31 191 124 0 37
-5 51 -31 77 -26 26 -42 32 -89 37 -32 3 -80 3 -108 0z"/>
</g>
</svg>
