<?xml version="1.0" standalone="no"?>
<!DOCTYPE svg PUBLIC "-//W3C//DTD SVG 20010904//EN"
 "http://www.w3.org/TR/2001/REC-SVG-20010904/DTD/svg10.dtd">
<svg version="1.0" xmlns="http://www.w3.org/2000/svg"
 width="195.000000pt" height="195.000000pt" viewBox="0 0 195.000000 195.000000"
 preserveAspectRatio="xMidYMid meet">
<metadata>
Created by potrace 1.15, written by Peter Selinger 2001-2017
</metadata>
<g transform="translate(0.000000,195.000000) scale(0.100000,-0.100000)"
fill="#000000" stroke="none">
<path d="M20 975 l0 -226 63 3 62 3 5 75 5 75 49 -70 c28 -39 55 -73 60 -77 6
-4 44 -8 84 -8 75 0 86 8 57 40 -12 13 -13 23 -6 44 9 22 17 26 50 26 40 0 56
-11 63 -45 3 -17 12 -20 68 -23 36 -1 88 -5 117 -8 28 -4 65 -2 82 4 27 10 30
8 33 -11 3 -20 10 -22 66 -25 l62 -3 0 76 c0 41 4 75 9 75 5 0 32 -34 60 -75
l52 -75 73 0 c40 0 76 3 79 7 4 3 0 17 -9 31 -13 19 -14 30 -5 48 9 20 18 24
51 24 37 0 42 -3 56 -35 8 -19 20 -35 28 -35 8 0 16 -9 19 -20 5 -19 14 -20
119 -20 94 0 121 3 153 20 34 17 59 20 177 20 l138 0 0 50 0 50 -90 0 c-83 0
-90 1 -90 20 0 18 7 20 64 20 73 0 89 12 84 62 l-3 33 -69 5 c-103 7 -99 28 6
32 l83 3 3 48 3 47 -128 0 c-109 0 -135 3 -168 20 -33 17 -59 20 -162 20
l-122 0 -3 -72 -3 -73 -18 53 -19 53 -56 -3 -57 -3 -36 -100 c-21 -55 -40
-109 -43 -119 -5 -19 -6 -19 -25 -2 -40 36 -36 51 38 152 39 53 71 100 71 105
0 5 -33 9 -73 9 l-74 0 -49 -70 c-27 -38 -53 -69 -57 -70 -5 0 -8 26 -7 58 1
31 1 63 1 70 -1 9 -18 12 -63 10 -56 -3 -63 -5 -66 -25 -3 -19 -7 -21 -28 -13
-39 15 -112 12 -150 -6 -42 -20 -64 -59 -64 -111 0 -67 32 -91 158 -123 53
-14 51 -35 -4 -35 -31 0 -41 5 -49 23 -8 17 -18 22 -47 22 -40 0 -39 -2 -92
155 l-23 70 -44 6 c-24 4 -51 3 -59 -1 -8 -5 -33 -58 -54 -119 -21 -61 -42
-114 -47 -116 -7 -5 -49 46 -49 59 0 3 32 49 70 101 39 52 70 99 70 105 0 6
-31 10 -73 10 l-74 0 -49 -71 -49 -72 -5 69 -5 69 -62 3 -63 3 0 -226z m110
140 c0 -56 3 -75 14 -75 7 0 37 34 67 75 l53 75 58 0 c32 0 58 -3 58 -6 0 -3
-32 -50 -71 -105 l-71 -99 32 -40 c32 -40 32 -42 19 -88 -7 -26 -12 -49 -11
-52 1 -3 27 -7 59 -10 80 -7 84 -30 5 -30 -67 0 -74 4 -124 78 -42 63 -69 92
-79 86 -5 -3 -9 -41 -9 -85 l0 -80 -47 3 -48 3 -3 213 -2 212 50 0 50 0 0 -75z
m800 1 c0 -41 4 -77 9 -81 5 -3 36 31 67 75 l58 80 58 0 c32 0 58 -2 58 -5 0
-3 -28 -45 -63 -93 -35 -48 -67 -93 -71 -100 -5 -9 4 -28 24 -54 l33 -41 -17
-46 c-9 -25 -16 -49 -16 -53 0 -4 28 -8 62 -10 38 -2 63 -8 66 -15 3 -10 -13
-13 -57 -13 -70 0 -71 1 -144 104 -26 37 -52 64 -57 61 -6 -3 -10 -42 -10 -86
l0 -79 -50 0 c-43 0 -50 3 -50 20 0 10 11 36 25 56 14 20 25 51 25 69 0 18
-11 49 -25 69 -30 44 -30 42 -5 49 11 3 20 11 20 19 0 8 -9 31 -20 53 -11 22
-20 52 -20 67 0 27 2 28 50 28 l50 0 0 -74z m685 60 l35 -15 0 -180 c0 -223
10 -211 -167 -211 -75 0 -123 4 -123 10 0 6 16 10 35 10 21 0 35 5 35 13 0 6
-16 56 -35 110 -30 84 -35 110 -35 187 l0 90 110 0 c74 0 122 -5 145 -14z
m-840 -30 c33 -14 35 -18 35 -60 0 -38 -3 -46 -19 -46 -10 0 -21 9 -24 19 -6
24 -58 36 -87 21 -38 -20 -19 -42 55 -65 l70 -21 3 -91 3 -91 -32 -11 c-39
-14 -64 -14 -111 -1 -31 9 -38 17 -52 57 -21 60 -20 63 8 63 14 0 30 -10 39
-24 29 -44 117 -41 117 3 0 16 -12 24 -57 36 -97 26 -127 45 -137 88 -24 97
83 167 189 123z m-240 -100 c23 -64 34 -112 30 -125 -6 -20 15 -71 43 -103 14
-17 12 -18 -31 -18 -43 0 -46 2 -57 35 -11 34 -13 35 -65 35 -42 0 -55 -4 -67
-21 -14 -21 -14 -21 -41 14 l-27 36 40 113 c22 62 42 119 45 126 3 7 22 12 49
12 l44 0 37 -104z m789 26 c21 -62 26 -96 26 -175 0 -103 -10 -121 -34 -62
-14 33 -17 35 -64 35 -40 0 -52 -4 -64 -22 -14 -21 -14 -21 -42 15 l-28 36 35
98 c60 167 51 153 101 153 l44 0 26 -78z m596 43 l0 -34 -82 -3 c-81 -3 -83
-4 -83 -28 0 -24 3 -25 68 -28 l67 -3 0 -34 0 -34 -67 -3 -68 -3 -3 -32 -3
-32 88 -3 88 -3 3 -37 3 -38 -124 0 c-105 0 -126 3 -131 16 -8 21 -8 319 1
327 3 4 60 7 125 7 l118 0 0 -35z"/>
</g>
</svg>
