<?xml version="1.0" standalone="no"?>
<!DOCTYPE svg PUBLIC "-//W3C//DTD SVG 20010904//EN"
 "http://www.w3.org/TR/2001/REC-SVG-20010904/DTD/svg10.dtd">
<svg version="1.0" xmlns="http://www.w3.org/2000/svg"
 width="1600.000000pt" height="750.000000pt" viewBox="0 0 1600.000000 750.000000"
 preserveAspectRatio="xMidYMid meet">
<metadata>
Created by potrace 1.15, written by Peter Selinger 2001-2017
</metadata>
<g transform="translate(0.000000,750.000000) scale(0.100000,-0.100000)"
fill="#000000" stroke="none">
<path d="M0 3750 l0 -3750 8000 0 8000 0 0 3750 0 3750 -8000 0 -8000 0 0
-3750z m9030 1075 l0 -1815 -221 0 -222 0 7 1043 c3 573 9 1217 12 1432 l5
389 74 136 c40 74 116 216 170 315 54 99 114 210 134 247 20 38 37 68 39 68 1
0 2 -817 2 -1815z m540 -583 l0 -1879 -216 -384 c-119 -211 -218 -386 -220
-388 -2 -2 -3 1012 -2 2255 l3 2259 125 5 c69 3 167 7 218 8 l92 2 0 -1878z
m540 -373 l0 -1841 -222 -438 -223 -437 -3 386 c-2 212 0 1238 4 2279 l6 1892
219 0 219 0 0 -1841z"/>
</g>
</svg>
