<?xml version="1.0" standalone="no"?>
<!DOCTYPE svg PUBLIC "-//W3C//DTD SVG 20010904//EN"
 "http://www.w3.org/TR/2001/REC-SVG-20010904/DTD/svg10.dtd">
<svg version="1.0" xmlns="http://www.w3.org/2000/svg"
 width="3600.000000pt" height="2770.000000pt" viewBox="0 0 3600.000000 2770.000000"
 preserveAspectRatio="xMidYMid meet">
<metadata>
Created by potrace 1.15, written by Peter Selinger 2001-2017
</metadata>
<g transform="translate(0.000000,2770.000000) scale(0.100000,-0.100000)"
fill="#000000" stroke="none">
<path d="M9539 17922 c-3009 -2 -3778 -5 -3780 -15 -2 -6 -2 -1168 1 -2582 l5
-2570 968 965 968 965 -1 504 c-1 277 1 505 3 507 2 2 433 4 958 4 692 0 955
-2 958 -11 2 -6 -10 -23 -27 -37 -16 -15 -132 -133 -258 -262 -479 -491 -1056
-1083 -1244 -1275 -108 -110 -387 -396 -620 -635 -234 -239 -605 -619 -825
-845 -220 -225 -503 -515 -628 -643 -125 -128 -234 -244 -242 -256 -13 -20
-15 -148 -15 -987 l0 -964 3790 -3 3790 -2 0 2765 c0 1521 -3 2765 -8 2765 -4
0 -440 -433 -970 -963 l-962 -962 0 -693 0 -692 -1150 0 c-632 0 -1150 3
-1150 7 0 5 954 962 2120 2128 l2120 2120 0 832 c0 656 -3 832 -12 834 -7 2
-1712 3 -3789 1z"/>
<path d="M13816 17904 c-3 -8 -6 -505 -6 -1104 0 -989 1 -1090 16 -1105 9 -9
175 -135 370 -280 l353 -265 739 0 738 0 13 93 c15 109 45 177 106 245 60 67
122 105 230 141 216 72 -5 66 2510 65 2382 0 2333 1 2553 -45 310 -64 611
-233 780 -437 89 -107 112 -141 175 -267 90 -179 161 -372 202 -545 10 -41 23
-80 29 -87 10 -10 262 -154 469 -267 37 -20 82 -45 100 -55 18 -10 59 -33 92
-51 33 -18 78 -43 100 -56 22 -12 41 -28 42 -35 1 -9 -178 -122 -450 -284
l-452 -270 -8 -45 c-19 -108 -39 -207 -47 -235 -85 -277 -182 -441 -338 -571
-145 -121 -379 -260 -536 -319 -131 -49 -331 -96 -491 -114 -49 -5 -457 -13
-905 -16 -448 -4 -818 -10 -823 -14 -4 -4 -6 -500 -5 -1102 l3 -1094 980 -3
c990 -3 1057 -1 1280 34 259 41 435 83 655 154 97 31 352 136 435 178 321 164
534 292 695 416 334 257 722 667 900 950 192 305 346 719 445 1198 21 100 33
169 70 403 9 60 26 214 40 375 17 188 20 713 5 787 -5 26 -17 104 -25 173 -33
253 -98 556 -181 836 -134 461 -290 807 -505 1125 -264 390 -813 883 -1267
1137 -261 147 -609 269 -932 327 -52 9 -115 22 -140 28 -33 8 -1135 12 -4026
14 -3644 3 -3982 2 -3988 -13z"/>
<path d="M23035 17904 c11 -8 108 -73 215 -143 549 -361 969 -736 1247 -1113
178 -241 387 -606 493 -861 23 -56 38 -78 53 -82 12 -3 391 -6 842 -8 594 -2
830 -6 855 -14 19 -7 73 -22 120 -34 200 -50 433 -148 560 -234 269 -184 494
-519 652 -970 13 -39 27 -48 466 -310 278 -166 451 -275 449 -284 -2 -11 -352
-207 -907 -507 -36 -19 -70 -41 -77 -47 -7 -7 -23 -56 -37 -109 -77 -298 -182
-520 -335 -709 -173 -215 -467 -364 -891 -452 -102 -21 -130 -21 -925 -25
-451 -1 -823 -6 -828 -11 -5 -5 -28 -53 -53 -107 -96 -214 -268 -501 -419
-699 -350 -460 -563 -669 -915 -897 -193 -125 -467 -274 -690 -376 -36 -16
-86 -39 -111 -50 -26 -12 -72 -31 -102 -42 -31 -12 -59 -26 -62 -31 -9 -13
3960 -12 4062 1 364 49 566 86 858 159 536 133 860 282 1250 574 343 257 693
616 898 924 129 193 283 524 356 763 74 247 96 327 127 480 83 413 113 716
114 1149 0 343 -14 544 -61 851 -67 445 -196 917 -334 1225 -163 365 -301 573
-609 920 -148 167 -391 412 -491 495 -194 159 -309 239 -475 328 -200 106
-399 174 -620 211 -279 47 -126 44 -2485 48 -1980 2 -2208 1 -2190 -13z"/>
<path d="M13747 14673 l-27 -4 2 -2442 3 -2442 2638 -3 2637 -2 -2 1102 -3
1103 -1310 7 -1310 7 -70 22 c-61 20 -79 32 -136 89 -59 60 -68 74 -92 151
-43 140 -47 178 -47 464 0 261 1 275 19 285 13 7 279 10 793 10 l774 0 682
408 c419 250 681 413 681 422 0 9 -263 172 -677 420 l-677 405 -1925 1 c-1059
1 -1937 0 -1953 -3z"/>
</g>
</svg>
