<?xml version="1.0" standalone="no"?>
<!DOCTYPE svg PUBLIC "-//W3C//DTD SVG 20010904//EN"
 "http://www.w3.org/TR/2001/REC-SVG-20010904/DTD/svg10.dtd">
<svg version="1.0" xmlns="http://www.w3.org/2000/svg"
 width="514.000000pt" height="266.000000pt" viewBox="0 0 514.000000 266.000000"
 preserveAspectRatio="xMidYMid meet">
<metadata>
Created by potrace 1.15, written by Peter Selinger 2001-2017
</metadata>
<g transform="translate(0.000000,266.000000) scale(0.100000,-0.100000)"
fill="#000000" stroke="none">
<path d="M973 2338 c-51 -79 -87 -151 -206 -414 -99 -217 -156 -353 -176 -414
-9 -28 -20 -39 -56 -54 -57 -23 -80 -60 -59 -96 21 -38 17 -94 -12 -163 -50
-116 -134 -372 -134 -405 0 -51 25 -88 75 -112 57 -28 105 -23 161 14 37 24
41 30 52 98 20 119 72 317 103 399 l29 76 88 21 c48 12 98 23 112 24 l25 3 8
-235 c8 -207 7 -238 -8 -269 -16 -33 -15 -37 19 -145 19 -61 49 -156 66 -212
30 -98 92 -210 109 -199 31 19 50 269 52 695 1 278 9 453 20 465 4 3 39 9 79
12 l73 6 -7 -26 c-12 -47 -25 -171 -36 -327 -10 -153 -31 -296 -51 -347 -8
-22 -6 -30 13 -50 56 -60 144 -71 229 -28 28 14 107 45 177 69 70 24 186 71
257 104 72 33 163 70 203 81 40 11 85 30 100 43 16 13 51 34 80 47 29 14 52
29 52 34 0 35 -630 -69 -784 -129 -18 -7 -19 0 -13 217 6 243 29 461 78 739
17 96 33 191 36 210 5 34 1 40 -57 93 -54 51 -66 57 -103 57 -53 0 -82 -20
-91 -61 -3 -17 -10 -95 -16 -173 -11 -158 -29 -300 -41 -332 -6 -16 -27 -27
-89 -43 -45 -13 -88 -20 -96 -17 -12 4 -14 51 -14 265 0 295 -4 316 -83 434
-36 53 -95 107 -116 107 -4 0 -25 -28 -48 -62z m-15 -698 l5 -117 -33 -6 c-50
-11 -80 -8 -80 6 0 15 31 121 61 206 18 53 23 61 32 46 5 -10 12 -71 15 -135z"/>
<path d="M3666 2199 c-55 -13 -143 -62 -198 -109 -61 -53 -140 -171 -167 -251
-30 -89 -29 -208 2 -269 53 -107 168 -135 347 -86 122 34 169 34 199 2 20 -21
22 -31 16 -63 -26 -141 -171 -291 -490 -508 -123 -83 -135 -93 -135 -117 0
-10 2 -18 5 -18 12 0 137 56 245 109 63 31 123 55 132 53 19 -4 177 104 295
201 186 152 236 297 148 425 -18 27 -35 60 -37 73 -2 19 -14 27 -63 42 -68 22
-244 26 -330 8 -47 -10 -51 -9 -72 15 -64 71 14 226 150 295 42 22 109 30 124
16 4 -5 0 -29 -9 -54 -9 -26 -15 -50 -12 -55 10 -16 116 -40 149 -34 48 9 89
60 82 102 -8 50 -38 105 -77 144 -67 65 -210 103 -304 79z"/>
<path d="M2184 2169 c-304 -14 -299 -10 -307 -231 -4 -108 -14 -186 -41 -323
-46 -223 -55 -349 -33 -425 9 -30 22 -63 29 -73 13 -17 16 -17 73 9 33 15 126
51 208 80 161 57 236 97 294 156 45 46 46 46 -127 13 -73 -14 -149 -25 -169
-25 -41 0 -108 17 -115 29 -3 5 4 48 17 97 l22 89 45 13 c25 7 113 40 195 72
83 33 156 60 162 60 9 0 10 -10 5 -32 -11 -52 -7 -169 7 -212 18 -51 74 -112
117 -126 44 -15 112 -6 233 31 137 42 160 45 214 21 80 -35 98 -111 51 -212
-37 -80 -202 -238 -414 -396 -208 -156 -351 -255 -402 -280 -37 -17 -46 -28
-30 -38 23 -14 293 111 562 259 162 90 172 95 201 95 51 0 184 115 253 220 69
103 90 169 90 280 1 111 -19 164 -91 241 -28 30 -41 52 -37 62 14 38 -116 34
-291 -9 -132 -32 -168 -31 -194 2 -62 79 16 265 143 339 51 30 128 49 161 41
21 -5 24 -10 19 -36 -5 -24 -1 -35 24 -60 42 -41 89 -41 131 1 68 68 19 164
-118 232 -56 27 -76 32 -136 32 -59 -1 -80 -6 -135 -34 -80 -41 -215 -175
-280 -278 -36 -56 -51 -72 -75 -77 -37 -7 -347 -27 -352 -22 -10 10 53 230 70
244 7 6 53 16 102 22 213 26 351 77 386 142 9 17 0 18 -138 16 -81 0 -229 -5
-329 -9z"/>
<path d="M4538 2170 c-38 -11 -81 -44 -97 -73 -10 -19 -25 -27 -57 -32 -38 -5
-48 -13 -75 -51 -44 -64 -115 -219 -136 -295 -12 -44 -18 -101 -18 -184 0
-111 2 -124 28 -177 15 -31 44 -70 63 -87 30 -27 42 -31 93 -31 256 0 441 228
497 612 21 146 12 183 -56 250 -68 66 -162 92 -242 68z m77 -287 c70 -182 -52
-424 -235 -468 -43 -10 -65 24 -64 100 2 83 25 155 84 257 l48 83 49 -3 c42
-3 53 0 74 22 29 30 35 32 44 9z"/>
</g>
</svg>
