<?xml version="1.0" standalone="no"?>
<!DOCTYPE svg PUBLIC "-//W3C//DTD SVG 20010904//EN"
 "http://www.w3.org/TR/2001/REC-SVG-20010904/DTD/svg10.dtd">
<svg version="1.0" xmlns="http://www.w3.org/2000/svg"
 width="200.000000pt" height="174.000000pt" viewBox="0 0 200.000000 174.000000"
 preserveAspectRatio="xMidYMid meet">
<metadata>
Created by potrace 1.15, written by Peter Selinger 2001-2017
</metadata>
<g transform="translate(0.000000,174.000000) scale(0.100000,-0.100000)"
fill="#000000" stroke="none">
<path d="M900 1699 c-85 -56 -83 -56 -78 -15 4 32 2 36 -16 34 -13 -2 -25 -18
-35 -48 -30 -85 -54 -97 -38 -20 11 57 7 66 -21 51 -12 -6 -25 -34 -36 -75
-10 -35 -27 -73 -38 -83 -21 -18 -21 -18 -15 29 4 27 9 59 13 73 4 15 2 25 -5
25 -26 0 -49 -42 -66 -116 -17 -79 -29 -104 -47 -104 -7 0 -8 27 -3 76 7 75 7
76 -15 64 -27 -15 -36 -37 -55 -140 -11 -59 -22 -91 -36 -105 l-21 -20 6 90 6
90 -35 -35 c-33 -34 -35 -40 -45 -139 -10 -93 -33 -171 -47 -158 -3 3 -8 47
-11 99 l-7 93 -33 -45 -34 -45 5 -125 c4 -120 -4 -190 -23 -190 -7 0 -15 28
-46 179 -5 22 -6 23 -19 5 -8 -11 -21 -40 -30 -65 -14 -42 -14 -54 -1 -119 9
-39 29 -102 45 -138 16 -37 32 -89 35 -117 l5 -50 -38 42 c-21 23 -54 73 -74
110 -39 72 -39 72 -38 -40 0 -42 7 -81 18 -104 24 -51 124 -155 186 -194 46
-29 127 -103 127 -117 0 -12 -91 12 -149 41 -37 18 -70 34 -76 36 -22 8 73
-83 119 -115 l50 -33 -89 -41 c-48 -22 -86 -42 -84 -44 2 -3 42 -10 89 -16 47
-6 88 -14 92 -18 3 -4 -13 -41 -37 -82 -24 -41 -43 -76 -41 -77 2 -2 45 17 97
41 52 25 135 58 184 75 76 25 90 33 87 50 -3 22 13 37 23 21 10 -15 787 -14
803 2 12 12 14 9 16 -25 1 -14 22 -25 86 -46 47 -15 129 -48 183 -74 53 -25
97 -43 97 -40 0 4 -18 39 -40 79 -22 40 -40 75 -40 78 0 2 40 10 90 17 49 6
87 16 84 20 -3 5 -39 25 -81 44 l-76 35 46 30 c50 32 132 109 124 117 -3 2
-25 -7 -49 -20 -50 -30 -165 -64 -176 -53 -8 9 50 62 128 116 62 43 135 116
174 175 24 36 26 49 26 135 l-1 95 -36 -68 c-20 -37 -53 -87 -74 -110 l-38
-42 6 50 c3 28 19 81 35 118 16 38 36 101 45 140 16 77 11 107 -28 171 l-18
29 -5 -24 c-3 -13 -12 -59 -21 -101 -9 -43 -20 -78 -24 -78 -19 0 -28 75 -24
191 l5 124 -34 43 -33 43 -5 -90 c-3 -49 -8 -92 -11 -96 -4 -3 -14 6 -24 21
-11 18 -20 61 -26 133 -9 102 -11 107 -43 140 l-34 34 5 -87 c9 -134 -27 -107
-53 40 -16 97 -25 119 -56 135 -20 11 -20 10 -13 -65 7 -75 0 -92 -23 -63 -6
7 -19 49 -29 92 -16 74 -39 115 -64 115 -7 0 -9 -9 -6 -22 3 -13 9 -45 12 -73
l7 -50 -20 20 c-11 11 -27 46 -36 77 -16 56 -37 88 -58 88 -10 0 -6 -46 8 -92
6 -21 -11 -24 -23 -5 -4 6 -15 32 -24 57 -10 31 -22 46 -35 48 -18 3 -20 -2
-16 -34 l5 -37 -39 23 c-22 13 -52 32 -67 43 -16 10 -31 16 -34 13 -14 -14 37
-62 85 -82 l52 -21 -26 -24 c-23 -21 -24 -25 -9 -36 14 -9 23 -8 48 8 35 21
67 25 67 9 0 -6 -16 -18 -35 -27 -58 -28 -39 -53 21 -28 20 8 46 15 58 15 20
-1 56 -21 56 -33 0 -3 -22 -13 -50 -22 -48 -16 -60 -28 -41 -39 5 -4 40 0 78
8 l68 15 28 -27 28 -27 -33 -8 c-105 -26 -111 -28 -99 -40 7 -7 43 -10 99 -8
85 2 88 2 116 -28 l29 -30 -24 -5 c-13 -3 -50 -7 -82 -11 l-59 -5 -55 50 c-67
61 -214 164 -303 214 l-66 36 -39 -21 c-79 -41 -261 -168 -322 -224 l-63 -56
-57 6 c-32 3 -69 8 -82 11 l-24 5 29 30 c28 30 31 30 116 28 118 -4 135 12 39
37 l-71 18 25 25 c24 24 26 24 97 13 39 -6 76 -9 80 -6 18 11 5 23 -42 39 -27
9 -50 19 -50 22 0 12 36 32 56 33 12 0 38 -7 58 -15 35 -15 56 -13 56 4 0 4
-16 15 -36 25 -25 12 -34 20 -27 27 7 7 24 4 52 -11 23 -11 46 -18 51 -15 16
10 12 31 -10 50 -21 19 -20 19 29 38 46 16 91 56 91 78 0 14 -12 10 -60 -22z
m201 -200 c177 -106 363 -269 448 -392 69 -101 121 -245 121 -337 0 -99 -60
-228 -133 -283 -41 -31 -117 -70 -117 -60 0 5 25 21 55 37 70 36 128 102 156
175 17 47 20 72 17 151 -7 165 -68 280 -238 450 -110 111 -222 196 -351 269
l-56 31 -86 -52 c-200 -123 -388 -292 -466 -421 -70 -117 -85 -171 -86 -292 0
-101 2 -114 28 -163 33 -63 95 -125 157 -157 25 -13 38 -24 29 -25 -22 0 -98
51 -142 96 -171 177 -104 482 165 739 40 39 102 93 138 120 71 55 249 164 266
165 6 0 49 -23 95 -51z m44 -234 c34 -24 100 -84 147 -134 215 -225 237 -459
54 -553 -50 -26 -144 -29 -197 -6 -49 21 -103 71 -123 113 -16 33 -36 39 -36
11 0 -7 -18 -34 -40 -59 -92 -104 -262 -108 -353 -8 -74 82 -76 189 -8 327 65
130 233 297 375 372 l39 21 41 -21 c23 -11 68 -40 101 -63z m-605 -22 c0 -5
-17 -26 -37 -47 -34 -37 -41 -39 -112 -46 -42 -5 -78 -6 -80 -4 -2 2 8 21 22
43 27 40 35 44 122 54 57 7 85 7 85 0z m1077 -9 c24 -3 40 -15 58 -42 14 -20
25 -39 25 -42 0 -3 -35 -4 -77 -1 -76 3 -78 4 -115 45 -20 22 -37 45 -38 49 0
8 67 4 147 -9z m-1189 -131 c-43 -97 -56 -109 -130 -136 -40 -14 -74 -25 -75
-23 -1 1 5 25 14 53 18 55 26 62 123 94 62 20 73 22 68 12z m1243 -19 c84 -28
95 -40 116 -123 5 -21 3 -23 -13 -16 -10 4 -45 17 -77 28 -58 20 -74 39 -115
130 -5 11 2 9 89 -19z m-1332 -171 c0 -5 -6 -35 -12 -69 -10 -50 -20 -70 -60
-114 -26 -29 -50 -50 -53 -47 -3 3 -8 33 -11 67 -6 68 3 84 81 141 39 29 57
36 55 22z m1371 -9 c14 -10 42 -33 63 -53 34 -32 37 -40 36 -86 -1 -27 -4 -60
-7 -72 -6 -20 -11 -17 -58 35 -39 44 -52 67 -58 102 -4 25 -9 55 -13 68 -6 26
4 28 37 6z m-1347 -312 c23 -45 45 -182 29 -182 -13 1 -60 44 -92 85 -36 45
-35 73 2 155 l20 45 9 -28 c4 -16 19 -49 32 -75z m1363 11 c9 -29 12 -62 9
-73 -7 -23 -101 -120 -115 -120 -20 0 3 134 32 188 15 30 28 64 28 76 1 21 1
21 16 1 8 -11 22 -44 30 -72z m-421 -177 c93 -17 344 -83 365 -96 13 -8 5 -43
-31 -127 l-18 -41 -89 28 c-162 53 -273 71 -464 77 -238 8 -433 -19 -623 -86
l-56 -20 -15 35 c-8 18 -21 50 -29 70 -8 20 -15 42 -15 50 0 24 254 92 445
119 127 18 405 13 530 -9z m456 -187 c27 -12 49 -25 49 -29 0 -4 -23 -10 -50
-14 -95 -13 -95 -14 -56 -76 19 -30 33 -56 31 -59 -2 -2 -45 14 -96 35 l-91
39 45 3 c44 3 45 4 71 63 15 32 32 59 37 59 6 0 33 -10 60 -21z"/>
<path d="M787 973 c-70 -148 -127 -272 -127 -276 0 -4 49 -7 108 -7 l108 0 13
35 12 35 105 0 104 0 14 -35 15 -35 105 0 c59 0 106 4 106 8 0 5 -56 127 -125
273 l-125 264 -93 3 -94 3 -126 -268z"/>
<path d="M883 418 c46 -117 53 -128 75 -128 17 0 24 7 29 30 6 33 23 41 23 12
0 -10 5 -23 12 -30 24 -24 43 -12 65 41 38 89 38 87 10 87 -21 0 -28 -7 -38
-37 l-12 -38 -12 35 c-13 40 -51 54 -61 23 -16 -48 -16 -48 -30 -15 -11 24
-20 32 -40 32 -17 0 -24 -4 -21 -12z"/>
</g>
</svg>
