<?xml version="1.0" standalone="no"?>
<!DOCTYPE svg PUBLIC "-//W3C//DTD SVG 20010904//EN"
 "http://www.w3.org/TR/2001/REC-SVG-20010904/DTD/svg10.dtd">
<svg version="1.0" xmlns="http://www.w3.org/2000/svg"
 width="1600.000000pt" height="640.000000pt" viewBox="0 0 1600.000000 640.000000"
 preserveAspectRatio="xMidYMid meet">
<metadata>
Created by potrace 1.15, written by Peter Selinger 2001-2017
</metadata>
<g transform="translate(0.000000,640.000000) scale(0.100000,-0.100000)"
fill="#000000" stroke="none">
<path d="M5000 5770 l-175 -5 -7 -585 c-3 -322 -7 -650 -8 -730 -2 -80 0 -433
3 -785 12 -1169 18 -1985 20 -2463 l2 -473 24 -18 c21 -16 55 -19 255 -25 196
-5 578 -9 625 -7 12 1 13 287 7 1944 -3 1068 -6 1947 -6 1952 1 6 3 279 7 608
l5 598 -288 -3 c-159 -2 -368 -5 -464 -8z"/>
<path d="M13648 5765 c-2 -2 -33 -7 -68 -10 -116 -10 -264 -40 -349 -70 -71
-25 -232 -107 -237 -120 -3 -7 -39 -39 -80 -71 -107 -82 -243 -251 -305 -381
-11 -23 -24 -45 -29 -48 -13 -8 -35 -58 -55 -125 -9 -30 -21 -66 -27 -80 -42
-100 -69 -204 -79 -314 -5 -55 -13 -141 -18 -191 -5 -49 -8 -92 -5 -97 3 -4
-2 -33 -10 -65 -13 -50 -14 -217 -11 -1187 3 -621 6 -1130 7 -1132 2 -1 0 -58
-4 -126 -9 -142 -5 -179 22 -203 10 -9 22 -31 26 -48 12 -58 122 -249 196
-344 50 -63 169 -173 299 -276 89 -70 236 -167 254 -167 7 0 30 -7 51 -16 21
-9 46 -17 56 -19 39 -8 148 -48 148 -55 0 -4 12 -6 28 -4 15 2 72 6 127 9 91
5 142 10 155 15 3 1 8 2 12 1 4 0 34 6 65 15 32 9 72 19 88 21 17 3 35 9 40
12 6 4 30 13 55 21 25 7 68 23 95 35 28 13 61 26 75 30 23 7 170 102 255 165
75 55 171 155 220 230 17 25 36 50 42 55 7 6 21 33 31 60 9 28 25 61 35 75 9
13 17 30 17 37 0 13 20 53 31 63 5 5 19 37 18 43 0 1 5 16 11 32 39 99 65 310
51 411 -5 32 -7 262 -6 509 1 248 3 767 3 1155 1 388 2 714 3 725 6 88 -4 313
-15 330 -16 24 -33 79 -40 122 -5 39 -80 202 -148 323 -14 25 -33 68 -44 95
-25 70 -44 99 -116 180 -167 188 -296 282 -438 319 -36 9 -99 26 -140 37 -66
18 -280 35 -292 24z m149 -1279 c47 -24 147 -127 170 -176 49 -103 48 -73 47
-1107 0 -964 -1 -973 -21 -995 -16 -18 -20 -37 -21 -94 -1 -47 -10 -100 -27
-155 -39 -126 -43 -133 -84 -173 -33 -32 -50 -39 -130 -56 -74 -15 -104 -17
-153 -9 -117 19 -197 83 -257 203 l-33 68 1 306 c0 169 3 584 6 922 3 338 6
692 7 785 1 200 11 243 74 331 53 75 89 106 162 141 91 43 187 47 259 9z"/>
<path d="M2937 5744 c-2 -2 -244 -5 -538 -6 -294 -1 -611 -3 -706 -6 -166 -4
-173 -5 -196 -28 -14 -13 -28 -39 -32 -57 -4 -17 -9 -37 -10 -44 -2 -7 -10
-27 -19 -44 -9 -18 -16 -37 -16 -44 0 -6 -6 -17 -12 -23 -7 -7 -13 -16 -13
-20 -2 -24 -79 -221 -105 -267 -11 -19 -20 -46 -20 -59 0 -13 -9 -41 -20 -63
-28 -56 -56 -122 -70 -168 -6 -22 -18 -54 -26 -72 -8 -17 -14 -36 -14 -42 0
-6 -4 -11 -9 -11 -15 0 -22 -63 -9 -76 9 -9 67 -14 195 -15 l181 -3 -1 -215
c-1 -119 2 -533 6 -921 14 -1303 17 -1662 19 -2263 2 -586 3 -599 23 -622 19
-22 28 -23 220 -29 432 -13 1087 -19 1093 -10 6 8 88 26 182 39 56 8 224 76
281 114 34 23 65 41 69 41 5 0 10 4 12 8 2 4 23 20 48 34 25 14 77 58 117 97
40 39 77 71 83 71 5 0 10 4 10 10 0 5 25 34 55 65 30 31 55 61 55 67 0 8 55
93 70 108 23 23 64 97 85 155 14 39 34 86 44 105 56 108 139 471 128 568 -2
23 0 45 6 49 6 4 7 429 3 1217 -4 666 -7 1223 -6 1238 0 15 -6 46 -14 70 -8
24 -20 63 -26 88 -7 25 -29 81 -49 125 -21 44 -52 114 -70 155 -17 42 -41 81
-51 88 -11 7 -20 19 -20 27 0 8 -4 15 -8 15 -5 0 -59 50 -121 110 -62 61 -116
110 -120 110 -5 0 -16 9 -26 20 -10 11 -38 30 -62 42 -24 12 -43 26 -43 30 0
5 -4 6 -10 3 -5 -3 -10 -2 -10 3 0 4 -19 19 -42 32 -24 12 -50 28 -58 35 -37
29 -202 106 -240 111 -36 5 -144 37 -150 44 -7 10 -37 19 -43 14z m-204 -1045
c54 -10 67 -15 67 -30 0 -11 7 -19 15 -19 8 0 15 5 15 10 0 6 9 10 21 10 11 0
18 -4 15 -9 -4 -5 3 -7 13 -4 37 9 127 -45 186 -112 30 -35 55 -68 55 -74 0
-7 7 -23 16 -36 9 -13 13 -28 10 -33 -3 -6 1 -15 9 -22 8 -7 12 -17 9 -22 -3
-5 1 -17 9 -26 14 -15 17 -113 22 -787 12 -1312 11 -1355 -2 -1355 -16 0 -15
3 -3 -40 10 -32 12 -97 6 -162 -1 -16 -12 -49 -24 -75 -11 -27 -26 -63 -34
-80 -7 -18 -16 -33 -20 -33 -5 0 -8 -6 -8 -14 0 -17 -113 -126 -132 -126 -4 0
-18 -11 -32 -25 -14 -14 -34 -25 -46 -25 -11 0 -20 -4 -20 -9 0 -15 -121 -68
-175 -76 -27 -4 -74 -8 -105 -10 -30 -2 -95 -8 -144 -14 -49 -7 -90 -10 -92
-9 -1 2 -4 528 -6 1168 -2 641 -5 1325 -8 1520 -3 195 -4 394 -2 441 2 76 5
86 20 83 9 -3 37 -1 61 3 62 11 223 7 304 -8z"/>
<path d="M7239 5746 c-2 -3 -132 -7 -289 -11 -269 -7 -286 -8 -307 -28 -13
-11 -23 -29 -23 -38 0 -10 -11 -43 -25 -73 -14 -30 -25 -61 -25 -68 0 -8 -7
-24 -16 -36 -8 -12 -13 -22 -10 -22 2 0 -11 -36 -30 -81 -19 -44 -34 -85 -34
-90 0 -5 -13 -37 -30 -71 -16 -34 -30 -66 -30 -72 -1 -6 -9 -29 -20 -51 -11
-22 -20 -47 -20 -55 0 -8 -6 -26 -13 -40 -7 -14 -23 -52 -36 -85 -28 -74 -41
-106 -51 -125 -17 -35 -21 -77 -7 -88 8 -7 76 -12 193 -13 l180 -1 1 -292 c0
-160 3 -534 7 -831 3 -297 8 -1066 11 -1709 l5 -1169 24 -24 23 -23 379 -8
c209 -4 385 -6 392 -4 9 3 12 225 12 1063 l0 1059 255 0 c140 0 255 4 255 8 0
7 87 25 175 36 17 2 51 13 78 25 26 11 47 18 47 16 0 -9 85 29 125 56 22 14
56 35 75 45 19 10 37 21 40 24 3 3 24 17 47 30 45 26 203 175 203 191 0 5 5 9
11 9 15 0 89 76 82 84 -4 3 -1 6 6 6 6 0 15 8 19 18 13 33 64 112 71 112 12 0
111 205 111 230 0 6 9 23 19 38 11 15 24 51 30 80 6 29 17 63 25 75 8 12 19
48 25 80 6 32 13 61 15 65 22 37 38 380 27 577 -9 159 -24 219 -81 333 -22 44
-40 85 -40 91 0 14 -67 141 -86 162 -8 8 -14 21 -14 27 0 7 -4 12 -8 12 -4 0
-60 49 -122 110 -63 60 -121 110 -127 110 -7 0 -13 3 -13 8 0 4 -24 23 -53 42
-28 19 -55 40 -59 45 -4 6 -8 6 -8 1 0 -5 -10 0 -22 11 -13 11 -59 40 -103 63
-44 24 -82 46 -85 50 -8 10 -119 48 -205 71 -44 11 -83 25 -86 31 -4 5 -17 10
-30 10 -13 0 -208 -1 -432 -1 -224 -1 -411 1 -416 3 -5 3 -10 4 -12 2z m635
-1046 c52 -10 70 -17 73 -31 6 -22 33 -26 33 -5 0 9 7 12 20 9 11 -3 17 -10
13 -16 -3 -6 -1 -7 6 -3 25 16 115 -28 167 -81 46 -46 125 -173 107 -173 -3 0
1 -8 10 -18 10 -10 14 -22 11 -25 -4 -4 -2 -13 4 -20 32 -39 31 -243 -1 -302
-9 -16 -17 -36 -17 -44 0 -8 -11 -29 -25 -47 -14 -18 -25 -37 -25 -42 0 -14
-62 -72 -70 -67 -4 3 -15 -6 -24 -20 -9 -14 -21 -25 -26 -25 -5 0 -20 -11 -34
-25 -14 -14 -34 -25 -45 -25 -11 0 -21 -4 -23 -9 -8 -23 -127 -69 -193 -76
-39 -3 -128 -13 -198 -22 -71 -8 -131 -12 -135 -9 -8 9 -11 143 -12 576 -1
555 -2 512 18 506 9 -3 40 -2 67 2 71 11 218 7 299 -8z"/>
<path d="M9667 5718 c-10 -7 -18 -26 -18 -43 0 -17 0 -235 1 -485 1 -250 -2
-1374 -5 -2497 -5 -1618 -3 -2043 6 -2049 15 -9 1929 -13 1974 -4 28 5 32 12
67 115 20 61 38 112 39 115 1 3 1 8 0 12 0 4 6 23 14 42 9 20 13 36 11 36 -2
0 16 53 40 117 25 65 52 143 60 173 8 30 18 64 23 75 10 22 43 120 68 205 9
30 19 57 23 60 3 3 14 38 23 79 13 55 15 76 6 82 -6 4 -9 11 -6 15 3 5 -77 8
-176 7 -167 -2 -490 -2 -1004 1 -111 1 -205 4 -209 8 -4 4 -7 796 -6 1759 0
963 -3 1784 -7 1824 -4 40 -3 85 1 101 4 16 3 33 -2 38 -5 5 -4 16 2 26 8 12
8 26 0 47 -7 20 -7 34 0 41 5 5 8 25 6 43 -2 28 -8 35 -28 37 -14 2 -30 8 -37
14 -7 5 -22 6 -35 2 -13 -4 -164 -7 -337 -5 -314 2 -402 5 -451 16 -14 3 -33
0 -43 -7z"/>
</g>
</svg>
