<?xml version="1.0" standalone="no"?>
<!DOCTYPE svg PUBLIC "-//W3C//DTD SVG 20010904//EN"
 "http://www.w3.org/TR/2001/REC-SVG-20010904/DTD/svg10.dtd">
<svg version="1.0" xmlns="http://www.w3.org/2000/svg"
 width="1200.000000pt" height="1200.000000pt" viewBox="0 0 1200.000000 1200.000000"
 preserveAspectRatio="xMidYMid meet">
<metadata>
Created by potrace 1.15, written by Peter Selinger 2001-2017
</metadata>
<g transform="translate(0.000000,1200.000000) scale(0.100000,-0.100000)"
fill="#000000" stroke="none">
<path d="M0 6000 l0 -6000 6000 0 6000 0 0 6000 0 6000 -6000 0 -6000 0 0
-6000z m1700 295 l0 -365 390 0 390 0 0 365 0 365 4160 0 4160 0 0 -955 0
-955 -195 0 -195 0 0 765 0 765 -70 0 -70 0 0 -765 0 -765 -195 0 -195 0 0
765 0 765 -1655 0 -1655 0 0 -760 0 -760 -180 0 -180 0 0 30 c0 17 -2 30 -4
30 -2 0 -33 -14 -68 -30 -75 -35 -180 -60 -256 -60 -66 0 -188 25 -247 50
-163 70 -297 225 -351 405 -29 95 -24 249 9 348 93 269 340 440 617 424 75 -4
163 -26 243 -61 16 -8 17 5 17 188 l0 196 -1600 0 -1600 0 0 -767 0 -766 -232
6 c-128 4 -239 7 -245 7 -10 0 -13 79 -13 360 l0 360 -390 0 -390 0 0 -360 c0
-198 -1 -360 -2 -360 -2 0 -114 -3 -250 -7 l-248 -6 0 956 0 957 250 0 250 0
0 -365z m2175 -350 c39 -12 78 -26 87 -30 13 -5 17 0 20 22 l3 28 193 3 192 2
0 -605 0 -605 -175 0 -175 0 0 39 0 40 -62 -29 c-91 -42 -170 -60 -268 -60
-169 0 -310 59 -431 179 -60 60 -85 94 -117 161 -54 114 -66 174 -60 306 4 85
11 124 31 176 120 312 451 474 762 373z m1425 -134 l0 -169 -88 -4 c-105 -5
-165 -30 -229 -95 -78 -81 -83 -108 -83 -468 l0 -315 -200 0 -200 0 2 603 3
602 175 0 175 0 5 -90 c3 -59 7 -81 12 -65 15 51 68 108 130 139 58 29 68 31
180 31 l118 0 0 -169z m3983 155 c190 -37 359 -166 440 -339 42 -88 58 -168
55 -275 l-3 -97 -427 -3 c-236 -1 -428 -6 -428 -10 0 -17 50 -75 87 -101 113
-82 273 -66 365 37 21 23 44 42 50 42 25 0 308 -67 316 -74 3 -4 -9 -37 -28
-72 -101 -190 -294 -311 -510 -321 -182 -9 -332 49 -460 177 -127 126 -182
261 -182 440 1 381 349 668 725 596z m-2124 -327 c65 -179 120 -332 123 -340
8 -19 3 -35 109 344 l92 327 167 0 c122 0 170 -3 177 -12 5 -7 56 -155 112
-328 57 -173 106 -319 110 -323 5 -4 59 137 121 315 62 178 118 329 123 336
12 15 357 18 357 3 0 -6 -88 -254 -196 -553 -108 -299 -204 -565 -213 -593
l-18 -50 -174 0 -174 0 -107 345 c-59 190 -108 351 -108 358 0 6 -4 12 -10 12
-5 0 -10 -5 -10 -11 0 -6 -48 -168 -107 -360 l-107 -349 -172 0 -172 0 -10 28
c-5 15 -105 283 -221 595 -116 313 -211 573 -211 578 0 6 80 8 201 7 l201 -3
117 -326z"/>
<path d="M5770 5599 c-98 -44 -170 -151 -170 -254 0 -97 68 -204 159 -250 46
-23 140 -31 194 -15 66 18 136 76 169 139 57 109 30 255 -64 335 -77 66 -199
85 -288 45z"/>
<path d="M3609 5627 c-97 -37 -158 -100 -185 -195 -29 -99 0 -196 81 -270 59
-54 113 -75 195 -74 70 1 119 22 177 75 139 127 112 346 -55 440 -63 35 -155
45 -213 24z"/>
<path d="M9070 5623 c-43 -16 -150 -109 -150 -132 0 -8 80 -11 250 -11 l251 0
-15 29 c-22 42 -91 97 -144 115 -57 20 -134 19 -192 -1z"/>
</g>
</svg>
