<?xml version="1.0" standalone="no"?>
<!DOCTYPE svg PUBLIC "-//W3C//DTD SVG 20010904//EN"
 "http://www.w3.org/TR/2001/REC-SVG-20010904/DTD/svg10.dtd">
<svg version="1.0" xmlns="http://www.w3.org/2000/svg"
 width="413.000000pt" height="549.000000pt" viewBox="0 0 413.000000 549.000000"
 preserveAspectRatio="xMidYMid meet">
<metadata>
Created by potrace 1.15, written by Peter Selinger 2001-2017
</metadata>
<g transform="translate(0.000000,549.000000) scale(0.100000,-0.100000)"
fill="#000000" stroke="none">
<path d="M370 2750 l0 -2260 1695 0 1695 0 0 2260 0 2260 -1695 0 -1695 0 0
-2260z m1144 1087 c43 -9 82 -19 87 -24 4 -4 -3 -71 -15 -148 -13 -77 -26
-156 -29 -175 l-5 -35 192 0 c166 0 196 -3 229 -19 21 -10 42 -27 48 -38 14
-26 7 -112 -14 -168 -10 -25 -22 -63 -27 -86 -6 -23 -21 -53 -34 -67 -24 -26
-27 -27 -103 -19 -43 4 -129 7 -191 7 -89 0 -115 -3 -123 -15 -6 -9 -9 -97 -7
-230 l3 -215 -35 -3 c-19 -1 -45 -7 -56 -13 -38 -19 -245 7 -272 34 -15 16
-17 42 -18 210 0 106 -1 200 -2 210 -2 15 -11 18 -64 17 -118 -3 -139 0 -169
22 -16 12 -27 28 -25 35 4 10 -11 13 -62 14 -62 1 -64 2 -27 10 22 4 63 8 90
9 81 1 135 60 55 60 -51 0 -52 16 -1 25 22 4 45 12 50 19 9 10 -6 14 -72 19
-45 4 -102 7 -126 7 -37 0 -42 2 -31 15 11 13 7 15 -26 15 -45 0 -84 9 -84 19
0 16 77 32 231 51 176 21 279 37 286 44 3 3 20 96 39 208 19 112 36 209 39
216 6 16 160 10 269 -11z m882 -60 c32 -35 88 -99 124 -141 128 -154 127 -153
144 -136 8 8 39 49 68 92 78 112 174 215 213 228 67 22 106 -7 200 -149 72
-111 72 -128 -3 -206 -71 -74 -146 -163 -197 -234 -33 -46 -37 -56 -26 -73 6
-10 9 -23 6 -27 -2 -5 29 -49 70 -97 41 -49 74 -96 75 -105 0 -9 6 -22 14 -28
7 -6 16 -24 19 -39 3 -16 20 -46 37 -68 53 -67 140 -189 140 -196 0 -19 -21
-4 -56 40 -22 26 -70 79 -107 117 -77 79 -74 60 12 -65 54 -78 70 -128 24 -75
-14 17 -40 46 -57 65 -17 19 -69 78 -116 130 -85 96 -128 133 -77 67 15 -19
27 -39 27 -44 0 -4 14 -28 30 -53 16 -25 30 -53 30 -63 0 -11 9 -32 21 -48 11
-16 18 -33 15 -38 -6 -10 36 -122 60 -158 8 -14 13 -27 10 -31 -8 -8 -29 16
-112 128 -82 110 -273 340 -282 340 -12 -1 -42 -27 -42 -36 0 -5 -25 -34 -56
-63 -49 -47 -60 -53 -87 -48 -28 4 -36 0 -62 -34 -26 -35 -45 -49 -45 -34 0 3
16 29 35 58 19 28 35 62 35 74 0 12 5 25 10 28 12 7 14 45 2 45 -4 0 -13 -10
-20 -21 -21 -34 -33 -9 -18 36 8 22 13 42 11 44 -5 4 -126 -126 -145 -155 -17
-28 -42 -33 -34 -6 4 9 -16 -7 -43 -37 -27 -30 -52 -50 -56 -45 -9 15 19 90
52 138 111 166 131 196 131 201 0 3 21 37 46 75 l46 69 -23 28 c-13 16 -104
117 -201 225 -98 108 -178 203 -178 210 0 17 97 108 115 108 7 0 18 7 25 15 7
8 19 15 27 15 8 0 26 9 40 20 42 33 65 26 129 -43z m1259 -1396 l40 -6 3 -165
c2 -98 -1 -180 -8 -202 -8 -29 -30 -53 -98 -107 -96 -78 -146 -101 -302 -138
-58 -14 -118 -30 -135 -35 -16 -6 -46 -10 -66 -9 -20 1 -89 -10 -154 -24 -66
-14 -127 -23 -136 -20 -10 3 -63 -3 -119 -15 -89 -17 -140 -20 -401 -20 -274
0 -315 2 -516 30 -120 16 -238 33 -263 39 -123 25 -449 119 -680 195 -184 61
-240 83 -240 94 0 4 -24 16 -53 27 -28 10 -64 32 -79 48 -26 28 -26 30 -10 53
9 13 27 24 39 24 20 0 22 4 18 35 -4 32 -2 35 21 35 14 0 27 7 31 18 4 9 15
25 25 34 18 16 18 17 1 27 -17 9 -17 10 0 17 15 5 16 9 5 15 -18 12 40 59 67
54 11 -2 61 -9 110 -15 50 -7 99 -16 110 -20 11 -5 81 -25 155 -45 74 -20 177
-50 229 -66 51 -16 123 -34 160 -39 36 -5 107 -21 156 -34 92 -25 244 -55 280
-56 11 0 38 -2 60 -4 145 -14 214 -18 320 -17 146 0 268 6 281 12 5 3 32 6 59
7 107 3 585 105 620 132 6 4 38 15 71 23 62 16 251 97 289 123 12 9 29 12 45
8 14 -4 43 -10 65 -13z"/>
</g>
</svg>
