<?xml version="1.0" standalone="no"?>
<!DOCTYPE svg PUBLIC "-//W3C//DTD SVG 20010904//EN"
 "http://www.w3.org/TR/2001/REC-SVG-20010904/DTD/svg10.dtd">
<svg version="1.0" xmlns="http://www.w3.org/2000/svg"
 width="413.000000pt" height="550.000000pt" viewBox="0 0 413.000000 550.000000"
 preserveAspectRatio="xMidYMid meet">
<metadata>
Created by potrace 1.15, written by Peter Selinger 2001-2017
</metadata>
<g transform="translate(0.000000,550.000000) scale(0.100000,-0.100000)"
fill="#000000" stroke="none">
<path d="M1382 4230 c-61 -18 -157 -66 -237 -120 -76 -51 -197 -110 -223 -110
-18 0 -57 23 -112 65 -172 132 -240 165 -337 165 -59 0 -112 -47 -119 -105 -7
-52 60 -238 151 -418 36 -71 65 -141 65 -156 0 -22 -15 -41 -76 -92 -150 -127
-235 -256 -256 -385 -21 -135 26 -312 115 -437 84 -118 177 -181 267 -182 70
0 104 17 216 110 92 77 138 105 172 105 11 0 48 -21 82 -47 191 -147 264 -183
370 -183 64 0 158 24 220 55 163 83 223 325 143 580 -60 193 -158 321 -303
395 -58 30 -110 71 -110 89 0 7 33 88 74 180 163 367 169 389 116 452 -20 26
-43 40 -74 48 -56 14 -66 13 -144 -9z"/>
<path d="M2597 4235 c-81 -28 -111 -88 -89 -172 10 -37 58 -148 194 -456 22
-47 22 -47 2 -74 -11 -15 -56 -46 -100 -70 -165 -90 -277 -257 -319 -478 -36
-189 -1 -352 94 -438 82 -74 194 -112 310 -104 90 5 144 27 226 91 133 103
178 130 216 129 40 0 97 -35 181 -109 75 -68 119 -93 171 -100 40 -6 56 -2
111 25 182 89 320 343 302 556 -11 138 -71 241 -230 397 -107 104 -109 107
-103 143 3 20 40 107 81 193 42 87 85 184 96 217 12 33 26 74 32 92 9 26 8 41
-6 78 -22 57 -43 68 -131 69 -80 0 -124 -18 -215 -88 -107 -83 -189 -136 -210
-136 -23 0 -153 66 -315 161 -63 36 -124 64 -165 73 -78 19 -84 19 -133 1z"/>
<path d="M3790 2263 c-8 -3 -78 -67 -155 -143 -77 -75 -174 -160 -215 -187
-87 -59 -214 -123 -285 -146 -69 -23 -425 -95 -553 -112 -20 -3 -64 -10 -97
-15 -209 -34 -537 -45 -753 -24 -292 27 -589 116 -881 263 -122 61 -462 262
-502 297 -24 21 -76 18 -89 -5 -17 -33 -12 -137 11 -204 31 -91 86 -192 138
-250 114 -126 395 -256 746 -345 247 -63 382 -90 475 -97 47 -3 139 -12 205
-20 212 -25 357 -28 515 -10 80 8 197 20 260 26 267 23 594 146 836 314 122
85 311 267 364 351 54 86 83 176 75 232 -10 65 -45 93 -95 75z"/>
</g>
</svg>
