<?xml version="1.0" standalone="no"?>
<!DOCTYPE svg PUBLIC "-//W3C//DTD SVG 20010904//EN"
 "http://www.w3.org/TR/2001/REC-SVG-20010904/DTD/svg10.dtd">
<svg version="1.0" xmlns="http://www.w3.org/2000/svg"
 width="600.000000pt" height="600.000000pt" viewBox="0 0 600.000000 600.000000"
 preserveAspectRatio="xMidYMid meet">
<metadata>
Created by potrace 1.15, written by Peter Selinger 2001-2017
</metadata>
<g transform="translate(0.000000,600.000000) scale(0.100000,-0.100000)"
fill="#000000" stroke="none">
<path d="M2820 4046 c-101 -27 -163 -57 -248 -121 -81 -61 -105 -91 -91 -116
5 -10 14 -19 19 -19 5 0 37 25 71 55 130 116 294 172 478 162 161 -8 294 -62
413 -166 49 -43 75 -51 85 -25 13 34 -129 145 -252 197 -143 60 -327 73 -475
33z"/>
<path d="M2955 3703 c-32 -43 -61 -82 -66 -87 -4 -4 -34 8 -66 28 -130 80
-125 79 -535 84 l-368 4 0 -23 c1 -61 65 -146 129 -171 14 -6 67 -16 116 -24
410 -62 667 -205 772 -430 24 -51 28 -72 28 -149 0 -82 -3 -97 -34 -159 -22
-46 -59 -94 -112 -149 -44 -45 -78 -89 -77 -97 2 -8 15 -16 29 -18 27 -3 47
12 117 92 23 27 42 45 42 41 0 -4 -23 -46 -51 -92 -56 -93 -60 -126 -18 -131
33 -4 42 7 89 115 22 48 40 85 40 81 0 -4 -7 -57 -15 -118 -17 -118 -13 -143
25 -155 22 -7 45 7 60 35 6 10 3 51 -5 106 -23 141 -18 149 27 41 41 -97 62
-123 92 -111 33 13 27 43 -23 126 -59 99 -75 137 -35 88 62 -77 111 -120 138
-120 45 0 34 41 -24 90 -64 54 -144 173 -160 240 -7 30 -10 84 -8 126 7 105
49 187 147 284 137 135 344 219 666 270 136 22 217 82 232 174 l6 36 -351 0
-351 0 -73 -26 c-40 -14 -98 -41 -129 -60 -31 -19 -59 -34 -62 -34 -2 0 -31
35 -62 78 -32 42 -61 81 -65 85 -4 4 -33 -27 -65 -70z"/>
<path d="M2290 3385 c-17 -21 -7 -167 18 -260 32 -119 85 -210 181 -305 124
-123 272 -202 288 -153 6 17 -25 43 -98 83 -91 49 -215 176 -262 267 -46 88
-75 199 -78 293 -2 56 -6 73 -19 80 -13 7 -22 5 -30 -5z"/>
<path d="M3703 3393 c-8 -3 -13 -23 -13 -48 0 -23 -7 -82 -15 -131 -36 -208
-170 -386 -367 -485 -42 -21 -58 -35 -58 -49 0 -35 30 -35 98 0 233 121 362
314 393 586 12 112 3 144 -38 127z"/>
<path d="M1510 2285 c-6 -8 -10 -22 -8 -32 3 -16 16 -18 101 -21 l97 -3 0
-137 c0 -94 4 -142 12 -150 16 -16 23 -15 42 4 13 12 16 41 16 149 l0 134 97
3 c85 3 98 5 101 21 9 44 -8 47 -233 47 -174 0 -215 -3 -225 -15z"/>
<path d="M2052 2288 c-14 -14 -17 -315 -3 -336 4 -8 19 -12 32 -10 l24 3 3
164 c2 162 -2 191 -32 191 -7 0 -17 -5 -24 -12z"/>
<path d="M2241 2287 c-54 -27 -66 -60 -66 -174 l0 -105 38 -34 37 -34 197 2
c186 3 198 4 201 22 8 40 -22 46 -209 46 -145 0 -179 3 -189 15 -19 22 -24
144 -8 175 11 20 23 26 62 30 59 6 83 32 52 56 -24 17 -82 18 -115 1z"/>
<path d="M2569 2284 c-19 -23 1 -48 42 -54 25 -4 35 -11 37 -26 5 -38 -17 -43
-199 -46 l-174 -3 0 -25 0 -25 194 -3 c169 -2 196 0 212 14 40 36 32 137 -14
169 -28 20 -81 19 -98 -1z"/>
<path d="M4025 2286 c-70 -31 -97 -93 -90 -199 6 -72 28 -113 75 -138 30 -17
58 -19 210 -19 196 0 220 7 260 72 30 50 29 182 -3 229 -40 61 -71 69 -257 69
-115 -1 -174 -5 -195 -14z m371 -71 c25 -16 45 -74 39 -117 -11 -88 -32 -98
-215 -98 -188 0 -209 11 -210 115 0 70 17 101 60 112 54 14 301 5 326 -12z"/>
<path d="M2811 2269 c-43 -46 -38 -123 11 -164 l30 -25 214 0 c189 0 215 -2
221 -16 3 -9 2 -24 -4 -33 -9 -14 -47 -17 -294 -21 -263 -5 -284 -6 -287 -23
-9 -45 4 -47 304 -47 l284 0 32 29 c29 26 33 36 33 79 0 39 -5 56 -24 76 l-23
25 -220 3 c-232 3 -250 7 -227 50 9 16 31 18 242 20 l232 3 0 30 0 30 -252 3
c-247 2 -252 2 -272 -19z"/>
<path d="M3414 2276 c-3 -8 -4 -23 -2 -33 3 -16 16 -18 100 -21 l97 -3 3 -142
c3 -131 4 -142 22 -145 37 -8 46 24 46 160 l0 127 98 3 97 3 0 30 0 30 -228 3
c-192 2 -228 0 -233 -12z"/>
</g>
</svg>
