<?xml version="1.0" standalone="no"?>
<!DOCTYPE svg PUBLIC "-//W3C//DTD SVG 20010904//EN"
 "http://www.w3.org/TR/2001/REC-SVG-20010904/DTD/svg10.dtd">
<svg version="1.0" xmlns="http://www.w3.org/2000/svg"
 width="600.000000pt" height="600.000000pt" viewBox="0 0 600.000000 600.000000"
 preserveAspectRatio="xMidYMid meet">
<metadata>
Created by potrace 1.15, written by Peter Selinger 2001-2017
</metadata>
<g transform="translate(0.000000,600.000000) scale(0.100000,-0.100000)"
fill="#000000" stroke="none">
<path d="M1405 4672 c-84 -53 -111 -131 -84 -241 8 -29 68 -71 148 -105 107
-45 130 -61 146 -100 34 -81 -36 -153 -140 -144 -78 7 -125 52 -159 151 -3 10
-10 15 -16 12 -11 -7 -14 -167 -4 -178 4 -3 17 1 30 10 22 14 28 14 67 -1 81
-31 193 -12 239 40 33 37 61 115 55 152 -11 61 -45 100 -127 138 -41 20 -95
45 -119 57 -72 35 -99 100 -65 153 34 52 111 64 163 27 14 -11 36 -38 47 -61
12 -22 24 -38 28 -35 3 4 6 28 6 55 0 41 3 48 20 48 21 0 43 -28 55 -70 4 -14
22 -61 40 -105 18 -44 59 -150 90 -235 55 -145 77 -191 90 -179 2 3 33 92 68
198 35 106 67 193 72 194 5 1 34 -65 63 -148 81 -225 87 -240 102 -240 7 0 25
39 42 95 17 52 60 183 97 290 62 184 67 195 91 195 l25 0 3 -277 2 -278 -35 0
c-19 0 -35 -4 -35 -10 0 -10 461 -15 471 -6 8 8 -2 166 -11 166 -4 0 -13 -19
-18 -43 -19 -74 -77 -106 -194 -107 l-68 0 0 141 0 141 38 -7 c43 -8 82 -40
82 -68 0 -10 5 -17 13 -15 15 6 22 143 9 179 -9 24 -10 23 -25 -14 -16 -38
-47 -57 -93 -57 l-24 0 0 131 0 131 81 -4 c77 -3 82 -5 110 -36 16 -18 29 -41
29 -51 0 -26 10 -51 21 -51 5 0 9 36 9 80 0 75 -1 80 -23 85 -40 10 -482 1
-481 -10 0 -5 13 -13 30 -16 16 -3 28 -9 28 -15 -5 -30 -129 -404 -135 -404
-4 0 -11 10 -14 23 -4 12 -36 104 -71 205 -35 100 -64 185 -64 187 0 3 16 5
35 5 24 0 35 5 35 14 0 20 -241 18 -248 -1 -2 -9 7 -13 28 -13 27 0 34 -5 51
-44 35 -80 34 -95 -11 -233 -23 -70 -46 -132 -50 -136 -4 -5 -28 47 -53 115
-25 68 -59 158 -76 201 -17 43 -31 82 -31 87 0 5 12 10 28 12 15 2 25 8 22 13
-3 6 -67 11 -155 12 -82 1 -172 4 -200 8 -40 5 -56 2 -80 -13z"/>
<path d="M3805 4676 c-88 -39 -130 -158 -85 -246 24 -47 58 -72 136 -101 144
-53 190 -110 149 -188 -28 -55 -129 -80 -192 -48 -40 22 -79 66 -94 110 -20
57 -34 39 -32 -42 l1 -72 -41 3 -42 3 -3 278 -2 277 36 0 c24 0 34 4 32 13 -6
17 -230 17 -235 0 -3 -7 9 -13 29 -15 l33 -3 0 -275 0 -275 -32 -3 c-18 -2
-33 -8 -33 -13 0 -6 49 -9 126 -8 69 1 128 -1 131 -5 3 -3 18 2 33 11 26 15
31 15 69 0 138 -56 291 36 291 173 0 84 -57 141 -186 184 -28 9 -70 33 -93 52
-36 31 -41 41 -41 78 0 76 71 122 142 93 40 -17 88 -70 88 -98 0 -10 5 -19 10
-19 6 0 10 30 10 70 0 70 -3 77 -29 61 -7 -5 -32 -3 -59 5 -56 17 -78 17 -117
0z"/>
<path d="M2910 4670 c-13 -8 -13 -10 0 -14 8 -3 24 -6 35 -8 19 -3 20 -12 23
-281 l2 -277 -35 0 c-19 0 -35 -4 -35 -10 0 -6 58 -10 155 -10 140 0 159 2
207 23 61 28 121 89 151 156 23 53 28 161 8 228 -17 60 -79 133 -141 167 -52
29 -60 30 -205 32 -82 2 -157 -1 -165 -6z m336 -39 c17 -10 38 -35 48 -55 28
-59 41 -199 28 -301 -19 -141 -61 -185 -181 -185 l-61 0 0 280 0 280 68 0 c48
0 76 -5 98 -19z"/>
<path d="M4078 4669 c-13 -8 -2 -15 37 -21 19 -3 20 -12 23 -281 l2 -277 -35
0 c-19 0 -35 -4 -35 -10 0 -6 45 -10 114 -10 66 0 117 4 121 10 4 6 -7 10 -24
10 l-31 0 -1 115 c-1 63 -2 125 -2 138 -1 22 1 22 108 22 l110 0 0 -135 0
-135 -25 -3 c-14 -2 -29 -8 -35 -13 -5 -5 39 -9 112 -9 71 0 124 4 128 10 4 6
-8 10 -29 10 l-36 0 0 279 0 280 33 3 c17 2 30 8 27 13 -7 15 -222 13 -227 -2
-3 -7 8 -13 24 -15 l28 -3 0 -125 0 -125 -101 -3 c-64 -2 -104 0 -108 7 -4 6
-7 64 -8 128 l-1 118 29 5 c16 3 28 10 26 15 -3 12 -206 15 -224 4z"/>
<path d="M1298 3996 c-26 -7 -55 -19 -65 -26 -51 -39 -78 -70 -106 -125 -28
-55 -31 -69 -32 -155 0 -110 17 -159 81 -229 53 -60 106 -85 179 -85 135 -2
242 98 276 255 12 55 1 137 -26 201 -53 128 -185 198 -307 164z m145 -33 c61
-31 97 -197 78 -366 -16 -142 -52 -193 -144 -202 -70 -7 -122 22 -150 83 -19
42 -22 65 -22 202 0 220 22 277 118 300 38 10 81 3 120 -17z"/>
<path d="M2276 4000 c-84 -25 -140 -154 -107 -243 17 -43 67 -81 144 -110 130
-50 173 -93 159 -164 -6 -33 -49 -72 -93 -83 -81 -22 -160 26 -204 122 -13 29
-24 47 -25 41 -1 -13 -1 -167 0 -180 0 -3 9 2 21 12 18 17 24 17 52 6 96 -39
157 -37 222 7 83 58 114 147 76 224 -24 50 -62 78 -151 113 -36 14 -81 36
-101 49 -65 43 -75 113 -23 161 32 29 63 35 109 19 48 -16 72 -39 85 -80 18
-54 30 -40 30 36 0 74 -1 76 -29 60 -12 -6 -34 -4 -66 5 -54 17 -58 17 -99 5z"/>
<path d="M2710 3990 c-180 -4 -225 -11 -155 -22 19 -3 20 -12 23 -281 l2 -277
-35 0 c-38 0 -50 -20 -12 -21 34 -1 325 -1 390 0 l57 1 0 91 c0 89 -12 111
-24 45 -8 -44 -41 -85 -82 -102 -43 -18 -184 -19 -185 -1 -2 55 3 262 7 266 3
3 24 -1 47 -9 30 -11 46 -24 57 -47 8 -18 18 -33 23 -33 4 0 7 45 7 101 0 64
-4 98 -10 94 -5 -3 -10 -13 -10 -21 0 -28 -47 -64 -83 -64 -43 0 -43 2 -39
148 l3 112 60 0 c100 0 143 -28 158 -104 4 -16 12 -31 19 -34 17 -5 17 142 0
154 -7 5 -105 7 -218 4z"/>
<path d="M4035 3988 c-61 -169 -93 -259 -172 -488 -30 -84 -30 -85 -66 -88
l-37 -3 0 280 0 281 35 0 c19 0 35 5 35 10 0 15 -167 13 -176 -2 -4 -6 -37
-101 -73 -210 -37 -110 -70 -200 -75 -201 -4 -1 -38 81 -75 183 -38 102 -73
197 -79 213 -11 27 -13 27 -102 27 -58 0 -89 -4 -85 -10 3 -5 19 -10 36 -10
22 0 29 -5 29 -20 0 -11 0 -136 1 -277 l0 -258 -36 -3 c-61 -5 -38 -20 38 -24
77 -4 97 -1 97 13 0 5 -16 9 -35 9 l-35 0 0 218 c0 119 -3 227 -6 240 -11 40
14 23 29 -20 75 -209 156 -427 166 -445 6 -13 16 -23 21 -23 4 0 45 113 90
250 45 138 83 250 86 250 2 0 4 -106 4 -235 l0 -235 -29 0 c-17 0 -33 -4 -36
-10 -6 -9 32 -11 220 -11 102 0 115 1 115 11 0 6 -13 10 -28 10 -16 0 -31 3
-35 6 -3 3 5 31 19 61 13 31 24 61 24 69 0 32 30 44 114 44 94 0 88 4 126
-105 26 -76 26 -75 -10 -75 -16 0 -30 -4 -30 -10 0 -10 32 -11 280 -11 149 0
150 0 150 10 0 6 -15 11 -32 13 l-33 3 -3 133 c-3 149 0 154 63 128 24 -11 40
-26 48 -46 13 -34 32 -35 31 -2 0 12 -1 54 -2 92 -1 39 -6 70 -12 70 -5 0 -10
-7 -10 -15 0 -29 -47 -65 -85 -65 l-35 0 0 131 0 131 74 -4 c93 -4 125 -24
145 -91 8 -26 18 -47 23 -47 4 0 8 32 8 71 l0 70 38 -3 37 -3 3 -277 2 -278
-35 0 c-19 0 -35 -4 -35 -10 0 -5 8 -10 18 -10 73 -2 281 -2 300 -1 33 2 27
21 -8 21 -36 0 -38 12 -9 83 11 29 25 62 30 75 8 20 15 22 98 22 l89 0 22 -57
c12 -32 26 -68 31 -81 14 -36 11 -42 -20 -42 -17 0 -33 -4 -36 -10 -3 -6 4
-10 17 -10 78 -2 215 -2 226 -1 28 2 9 20 -25 23 l-36 3 -108 290 c-60 163
-112 290 -119 290 -12 0 -35 -57 -148 -380 -33 -93 -63 -178 -67 -187 -5 -12
-18 -18 -41 -18 l-34 0 -1 88 c-1 71 0 437 1 465 0 4 14 7 30 7 17 0 30 5 30
10 0 6 -120 10 -341 10 -224 0 -338 -3 -334 -10 3 -5 19 -10 35 -10 38 0 38
-3 36 -305 l-1 -250 -39 0 -39 0 -59 160 c-32 88 -80 218 -107 289 -44 122
-65 155 -76 124z m20 -263 c19 -55 35 -103 35 -107 0 -5 -36 -8 -80 -8 -48 0
-80 4 -80 10 0 27 74 220 81 213 5 -5 25 -54 44 -108z m1139 0 c20 -55 36
-103 36 -107 0 -5 -36 -8 -80 -8 -55 0 -80 4 -80 12 0 26 74 218 81 211 4 -4
24 -53 43 -108z"/>
<path d="M526 3981 c5 -5 20 -11 34 -13 l25 -3 3 -277 2 -278 -35 0 c-34 0
-48 -14 -22 -21 26 -8 227 3 227 12 0 5 -13 9 -30 9 l-30 0 0 140 0 140 110 0
110 0 0 -140 0 -140 -31 0 c-19 0 -29 -4 -27 -12 3 -8 37 -12 114 -11 133 2
127 1 119 13 -3 6 -19 10 -36 10 l-29 0 0 280 0 280 29 0 c17 0 33 5 36 10 4
6 -37 10 -114 10 -68 0 -121 -4 -121 -9 0 -5 12 -11 28 -13 l27 -3 3 -127 3
-128 -111 0 -110 0 0 130 0 130 30 0 c17 0 30 5 30 10 0 6 -47 10 -122 10 -74
0 -118 -4 -112 -9z"/>
<path d="M1610 3981 c0 -6 15 -11 33 -13 l32 -3 5 -235 c5 -248 7 -255 57
-301 45 -43 73 -52 153 -53 93 -1 152 27 187 89 22 38 23 50 23 273 l0 232 35
0 c19 0 35 5 35 10 0 6 -34 10 -82 10 -50 0 -78 -4 -72 -9 5 -5 20 -11 34 -13
l25 -3 3 -215 c3 -240 -5 -282 -58 -320 -42 -30 -118 -37 -163 -15 -66 31 -72
58 -72 320 l0 230 33 3 c17 2 32 7 32 13 0 5 -52 9 -120 9 -68 0 -120 -4 -120
-9z"/>
<path d="M2780 3001 c0 -13 -9 -20 -30 -23 -17 -3 -33 -1 -36 4 -8 12 -24 10
-24 -4 0 -7 -14 -14 -33 -15 -17 -1 -39 -10 -47 -20 -9 -10 -25 -23 -35 -29
-11 -7 -19 -19 -17 -28 2 -9 -2 -16 -8 -16 -10 0 -13 11 -11 45 2 19 1 19 -13
1 -10 -12 -23 -17 -41 -14 -14 3 -25 1 -25 -3 0 -5 4 -9 9 -9 18 0 4 -53 -15
-61 -31 -11 -51 -39 -35 -48 7 -5 12 -12 11 -17 -1 -4 7 -11 17 -15 17 -7 17
-8 -2 -10 -29 -3 -36 -3 -82 5 -27 4 -43 2 -43 -4 0 -5 6 -10 14 -10 8 0 17
-9 21 -19 3 -11 12 -22 20 -25 22 -8 18 -26 -5 -26 -11 0 -20 5 -20 11 0 6 -9
9 -20 6 -11 -3 -20 -1 -20 4 0 16 -26 10 -45 -11 -18 -20 -15 -24 20 -20 34 4
-2 -27 -40 -34 -19 -4 -35 -11 -35 -16 0 -13 13 -13 27 1 8 8 17 7 32 -3 26
-16 23 -58 -5 -69 -19 -7 -19 -7 1 -15 23 -9 45 -35 39 -46 -3 -5 1 -8 8 -8
18 0 17 -62 -1 -68 -10 -3 -12 2 -7 21 8 35 -11 44 -26 13 -6 -14 -17 -26 -24
-26 -7 0 -18 -9 -24 -20 -15 -29 -27 -25 -34 12 -8 39 0 48 19 22 13 -16 16
-17 25 -4 14 22 13 28 -10 42 -24 15 -26 28 -5 28 8 0 15 5 15 11 0 6 -10 9
-22 7 -15 -2 -24 -11 -26 -26 -3 -18 -9 -23 -22 -19 -11 3 -21 -1 -24 -10 -3
-8 -11 -11 -17 -8 -7 5 -5 11 5 18 17 13 12 57 -6 57 -5 0 -6 -5 -3 -10 7 -12
-12 -40 -27 -40 -6 0 -8 6 -5 14 3 7 -4 21 -14 30 -13 11 -18 24 -14 36 4 12
2 20 -5 20 -7 0 -10 7 -7 15 4 8 2 17 -4 21 -18 11 -27 48 -16 66 13 20 -6 48
-34 48 -11 0 -19 3 -19 8 0 4 -13 16 -30 27 -16 11 -31 27 -32 35 -2 8 -14 15
-28 15 -16 0 -26 7 -28 19 -3 14 0 17 12 13 18 -7 21 6 6 34 -6 10 -19 19 -29
19 -10 0 -21 3 -25 7 -4 4 -20 8 -35 8 -16 0 -36 7 -45 14 -14 11 -16 11 -16
-3 0 -9 -4 -16 -9 -16 -16 0 -24 21 -12 33 18 18 12 28 -14 21 -17 -4 -27 -2
-30 9 -5 10 -20 14 -61 12 -29 -2 -54 1 -54 6 0 14 -28 11 -33 -3 -3 -10 -7
-10 -20 1 -19 15 -60 10 -112 -15 -36 -17 -55 -13 -55 12 0 8 -7 14 -15 14 -8
0 -15 -4 -15 -10 0 -5 5 -10 10 -10 6 0 10 -7 10 -15 0 -9 -9 -15 -25 -15 -16
0 -25 6 -25 15 0 8 -9 15 -20 15 -25 0 -25 -12 0 -35 19 -17 19 -18 -4 -36
-13 -11 -28 -19 -33 -19 -23 -1 -83 -39 -108 -68 -15 -18 -33 -31 -40 -28 -16
6 -49 -29 -41 -42 3 -6 -1 -23 -9 -38 -8 -16 -15 -25 -15 -20 0 5 -7 3 -15 -4
-12 -10 -15 -10 -15 3 0 25 -20 30 -41 11 -25 -23 -24 -37 2 -29 19 6 20 5 8
-17 -8 -12 -14 -34 -14 -48 0 -18 -6 -26 -23 -28 -23 -4 -23 -9 -5 -59 3 -8
-3 -13 -16 -13 -14 0 -21 6 -21 20 0 18 -2 19 -20 8 -26 -16 -26 -28 0 -28 11
0 20 -7 20 -15 0 -8 -5 -15 -11 -15 -6 0 1 -16 15 -35 15 -19 23 -35 19 -35
-16 0 -36 -61 -25 -72 7 -7 8 -17 1 -29 -6 -12 -5 -27 3 -45 10 -22 10 -28 -4
-38 -11 -8 -13 -17 -6 -35 6 -18 4 -29 -8 -42 -16 -18 -16 -19 4 -19 22 0 30
-24 13 -35 -11 -6 -11 -45 0 -45 4 0 9 -10 13 -22 4 -17 8 -20 17 -11 9 9 16
8 28 -4 19 -20 22 -73 4 -73 -22 0 -14 -18 16 -41 26 -19 28 -25 20 -47 -15
-39 7 -54 31 -22 12 16 15 29 9 35 -15 15 -11 29 5 16 8 -7 17 -23 20 -36 4
-14 12 -25 20 -25 7 0 19 -11 26 -25 14 -26 30 -33 30 -13 0 9 3 9 12 0 9 -9
7 -17 -8 -33 l-19 -22 31 5 c24 3 31 1 27 -9 -3 -7 -1 -13 3 -13 5 0 26 -16
48 -36 29 -27 45 -34 62 -30 16 4 30 -1 48 -19 28 -28 56 -33 56 -10 0 8 -7
15 -15 15 -8 0 -15 4 -15 9 0 17 36 0 45 -22 7 -14 24 -24 49 -29 22 -5 46
-14 54 -21 8 -6 36 -11 61 -10 l46 3 -24 -20 c-17 -15 -19 -20 -8 -20 9 0 18
4 22 10 3 5 13 6 21 3 13 -5 15 -1 9 17 -5 15 -4 20 3 16 11 -6 20 1 45 36 15
20 71 14 63 -8 -3 -8 0 -11 10 -7 8 3 23 -2 34 -12 12 -11 26 -14 39 -10 28 8
61 -3 61 -21 0 -8 7 -14 16 -14 12 0 14 3 6 13 -7 8 -4 19 10 37 l21 25 -5
-32 c-5 -39 -2 -40 24 -11 11 13 15 24 9 26 -6 2 -11 12 -11 22 0 10 -7 20
-16 22 -13 2 -13 6 -2 21 12 16 15 15 46 -13 39 -36 46 -37 37 -9 -5 14 -2 25
6 30 11 7 10 11 -6 23 -25 18 -11 35 16 18 23 -15 55 -2 64 27 7 23 45 36 45
15 0 -7 6 -11 13 -8 13 5 17 77 5 89 -3 3 -1 17 6 30 11 24 11 24 22 3 9 -18
12 -18 17 -4 4 9 2 16 -3 16 -6 0 -10 6 -10 14 0 18 31 26 103 26 56 0 59 1
70 30 15 40 27 38 27 -5 0 -36 13 -47 24 -20 3 8 10 15 15 15 6 0 8 -7 5 -15
-4 -9 0 -15 10 -15 9 0 16 -5 16 -11 0 -6 -9 -9 -20 -6 -13 3 -20 0 -20 -8 0
-10 13 -13 50 -10 27 2 52 -1 56 -6 3 -6 -2 -9 -12 -8 -32 5 -66 -11 -60 -28
3 -8 6 -19 6 -24 0 -5 5 -9 11 -9 6 0 8 8 4 19 -16 50 59 28 80 -24 20 -45 19
-69 0 -61 -8 3 -15 1 -15 -5 0 -21 32 -21 53 -1 19 19 19 22 4 28 -9 3 -17 12
-17 20 0 10 9 8 35 -7 40 -24 54 -41 37 -47 -7 -2 -10 -8 -6 -13 7 -12 54 -12
54 1 0 6 5 10 10 10 6 0 10 -7 10 -15 0 -9 7 -18 15 -21 8 -4 15 -13 15 -21 0
-8 9 -26 20 -40 18 -23 25 -23 21 1 -1 5 5 3 14 -4 13 -11 18 -10 29 5 13 18
14 18 20 -3 7 -22 46 -32 46 -11 0 7 10 9 26 5 18 -5 30 -2 38 10 10 13 17 14
33 5 12 -6 40 -9 63 -7 31 3 43 -1 48 -12 3 -9 0 -18 -6 -20 -7 -2 -12 -8 -12
-13 0 -6 6 -7 13 -2 6 4 20 6 30 5 10 -2 17 3 17 12 0 9 -7 16 -15 16 -8 0
-15 5 -15 10 0 14 33 13 48 -2 7 -7 12 -8 12 -2 0 5 -5 15 -12 22 -6 6 -9 14
-6 17 3 3 19 -8 36 -24 28 -28 30 -29 35 -11 6 23 27 27 27 5 0 -17 25 -20 35
-5 3 6 -1 13 -9 16 -9 3 -16 12 -16 20 0 17 -3 16 38 5 32 -10 37 -6 33 27 -3
17 29 28 39 12 6 -10 11 -8 21 8 7 11 18 18 25 15 6 -2 15 0 19 6 3 6 17 8 31
5 31 -8 31 4 0 16 -18 7 -23 14 -19 29 6 25 21 27 29 6 4 -8 10 -12 15 -9 5 3
5 13 -1 25 -12 21 -1 26 18 7 9 -9 13 -7 18 5 3 9 15 17 26 17 16 0 18 3 9 13
-12 15 3 37 26 37 15 0 17 16 3 25 -20 12 -9 25 15 19 21 -5 25 -3 25 14 0 11
14 32 32 46 18 14 29 28 25 32 -3 4 -13 1 -22 -6 -23 -19 -27 -7 -10 26 8 16
15 35 15 42 0 14 16 16 25 2 3 -5 1 -10 -4 -10 -6 0 -11 -5 -11 -11 0 -21 24
-2 33 27 4 16 12 38 16 49 25 62 42 125 36 134 -3 7 0 8 9 5 20 -8 20 -1 1 36
-13 24 -13 33 -3 50 10 16 10 24 0 41 -9 14 -11 35 -7 60 6 32 4 39 -9 39 -9
0 -16 8 -16 19 0 27 -10 51 -22 51 -5 0 -7 -4 -3 -9 3 -5 1 -12 -5 -16 -6 -3
-13 1 -17 10 -3 10 0 20 7 25 9 6 8 13 -5 33 -18 28 -48 44 -53 28 -2 -6 -11
-11 -19 -11 -11 0 -14 7 -9 25 4 14 2 25 -4 25 -5 0 -10 7 -10 15 0 8 -4 15
-10 15 -5 0 -10 9 -10 20 0 24 8 25 32 3 14 -13 21 -14 31 -4 9 9 7 13 -10 17
-11 3 -25 15 -31 27 -6 12 -11 16 -11 10 -1 -21 -49 -15 -61 6 -5 11 -19 23
-30 26 -15 5 -19 12 -15 26 9 27 -32 42 -62 23 -18 -11 -23 -11 -34 2 -7 9
-23 14 -35 11 -13 -2 -25 2 -28 9 -3 7 -14 10 -24 7 -11 -2 -23 0 -26 6 -4 6
-18 11 -32 11 -26 0 -31 9 -12 28 6 6 8 15 4 19 -4 4 -12 0 -17 -10 -6 -10
-15 -14 -22 -10 -7 4 -21 7 -32 8 -14 0 -20 7 -20 25 -1 19 -6 25 -20 23 -49
-5 -84 -11 -93 -17 -25 -15 -20 14 5 33 l28 22 -40 -3 c-28 -2 -39 1 -37 10 3
15 -8 15 -28 2 -13 -9 -12 -12 4 -25 11 -8 17 -17 14 -21 -4 -3 -20 4 -37 17
-25 18 -33 20 -45 9 -13 -10 -17 -9 -22 4 -5 13 -14 15 -35 11 -18 -4 -29 -2
-29 4 0 6 -4 11 -10 11 -5 0 -10 -8 -10 -19z"/>
<path d="M4293 2900 c-3 -11 -9 -17 -14 -14 -5 3 -12 -2 -15 -11 -5 -12 -15
-14 -43 -9 -26 4 -32 3 -21 -5 18 -12 10 -21 -21 -24 -13 -1 -43 -15 -67 -31
-32 -22 -40 -32 -31 -42 8 -9 1 -21 -26 -46 -21 -19 -37 -44 -39 -60 -1 -15
-7 -33 -13 -40 -6 -7 -12 -17 -12 -23 0 -5 -8 -18 -16 -28 -8 -9 -15 -24 -15
-32 0 -8 -6 -15 -14 -15 -9 0 -12 -7 -9 -20 3 -11 0 -27 -7 -35 -6 -8 -9 -23
-6 -33 4 -12 -1 -25 -13 -36 -11 -10 -17 -24 -14 -32 3 -8 0 -20 -6 -28 -6 -7
-8 -15 -5 -19 9 -9 -15 -47 -30 -47 -8 0 -16 -6 -19 -14 -4 -9 0 -12 13 -9 13
4 18 -1 19 -19 2 -51 12 -94 32 -131 6 -10 7 -27 4 -37 -3 -10 -1 -21 5 -25 5
-3 10 -14 10 -25 0 -10 7 -21 16 -24 11 -4 14 -14 9 -35 -5 -24 -2 -29 16 -34
15 -4 20 -11 15 -22 -3 -9 0 -18 9 -21 8 -4 15 -13 15 -21 0 -8 4 -12 9 -9 5
3 11 -1 15 -9 3 -8 11 -15 18 -15 7 0 30 -18 52 -40 21 -22 44 -40 52 -40 7 0
25 -5 41 -12 15 -7 33 -12 38 -13 6 0 21 -10 34 -22 12 -11 39 -24 59 -27 49
-8 63 -12 84 -21 10 -4 25 -5 33 -2 8 4 17 2 20 -3 3 -5 12 -7 19 -4 22 9 27
-24 33 -211 3 -99 10 -186 16 -193 13 -16 52 -15 67 3 8 10 11 65 10 192 -1
98 -1 194 -1 213 2 33 2 34 16 16 14 -18 20 -15 16 8 -1 5 9 2 21 -6 21 -14
27 -14 43 -2 10 8 30 14 43 14 17 0 23 4 18 15 -5 15 11 19 62 15 15 -1 22 4
22 16 0 14 3 15 12 6 15 -15 42 -16 33 -2 -8 13 42 54 64 55 24 0 81 37 81 52
0 8 20 28 45 45 47 33 53 43 33 52 -7 3 -4 4 7 3 14 -1 21 5 23 21 2 12 10 22
18 22 8 0 14 9 14 20 0 24 21 70 32 70 4 0 8 6 8 14 0 8 7 17 16 20 11 4 14
12 9 24 -12 27 -8 181 4 196 9 10 8 15 -4 20 -8 3 -15 15 -15 26 0 11 -5 20
-10 20 -6 0 -10 6 -9 13 5 26 -14 87 -32 103 -12 11 -19 30 -19 54 0 28 -7 43
-31 66 -17 16 -39 46 -50 66 -10 20 -28 39 -39 43 -11 4 -32 17 -47 31 -14 13
-34 24 -45 24 -10 0 -21 7 -24 15 -4 8 -16 15 -29 15 -13 0 -30 10 -39 25 -9
14 -22 22 -30 19 -8 -3 -17 -1 -21 5 -3 6 -19 11 -34 11 -15 0 -31 4 -37 9 -5
6 -31 11 -59 12 -27 1 -60 7 -72 12 -16 7 -31 7 -47 -1 -20 -9 -25 -8 -30 5
-5 12 -10 13 -17 6 -7 -7 -22 -8 -42 -2 -50 14 -81 11 -95 -11 -7 -11 -17 -20
-22 -20 -6 0 -10 9 -10 20 0 26 -30 26 -37 0z"/>
</g>
</svg>
