<?xml version="1.0" standalone="no"?>
<!DOCTYPE svg PUBLIC "-//W3C//DTD SVG 20010904//EN"
 "http://www.w3.org/TR/2001/REC-SVG-20010904/DTD/svg10.dtd">
<svg version="1.0" xmlns="http://www.w3.org/2000/svg"
 width="1039.000000pt" height="486.000000pt" viewBox="0 0 1039.000000 486.000000"
 preserveAspectRatio="xMidYMid meet">
<metadata>
Created by potrace 1.15, written by Peter Selinger 2001-2017
</metadata>
<g transform="translate(0.000000,486.000000) scale(0.100000,-0.100000)"
fill="#000000" stroke="none">
<path d="M3587 4368 c-8 -20 -576 -1490 -688 -1783 -22 -55 -39 -103 -39 -107
0 -5 128 -8 285 -8 l285 0 367 146 c203 81 374 147 381 148 12 1 25 -29 108
-251 l16 -43 299 0 c164 0 299 2 299 4 0 5 -96 260 -263 696 -85 223 -221 578
-302 790 -81 212 -151 393 -156 403 -9 16 -34 17 -298 17 -222 0 -290 -3 -294
-12z m338 -883 c26 -71 56 -151 66 -177 l18 -46 -162 -65 c-89 -36 -163 -64
-165 -63 -1 2 39 114 90 250 50 136 94 243 98 239 4 -4 28 -66 55 -138z"/>
<path d="M4330 4377 c0 -2 18 -50 41 -108 22 -57 107 -277 189 -489 82 -212
201 -520 265 -685 64 -165 144 -373 178 -463 l62 -162 295 2 294 3 17 45 c10
25 74 194 144 375 70 182 135 353 145 380 10 28 56 149 103 270 46 121 134
351 195 510 61 160 114 298 117 307 6 16 -14 17 -295 15 l-302 -2 -132 -355
c-73 -195 -170 -458 -217 -583 -80 -217 -84 -226 -96 -200 -7 15 -76 199 -154
408 -77 209 -170 460 -206 558 l-66 177 -289 0 c-158 0 -288 -1 -288 -3z"/>
<path d="M1195 4358 c-3 -7 -4 -434 -3 -948 l3 -935 450 -3 c512 -3 594 4 778
65 313 104 524 331 604 649 24 97 24 381 0 478 -59 237 -195 428 -389 550 -90
56 -172 90 -298 124 l-95 26 -523 4 c-426 3 -523 1 -527 -10z m915 -438 c166
-32 292 -154 346 -335 23 -79 24 -246 1 -332 -46 -174 -153 -286 -312 -328
-42 -10 -108 -15 -222 -15 l-163 0 0 510 0 510 149 0 c81 0 172 -5 201 -10z"/>
<path d="M6440 3420 l0 -950 285 0 285 0 0 950 0 950 -285 0 -285 0 0 -950z"/>
<path d="M7130 3421 l0 -951 448 0 c461 0 556 6 701 41 437 108 711 456 711
905 0 475 -257 804 -722 926 -79 20 -110 21 -610 25 l-528 4 0 -950z m945 494
c158 -42 269 -155 321 -330 23 -79 24 -246 1 -332 -46 -174 -153 -286 -312
-328 -42 -10 -108 -15 -222 -15 l-163 0 0 510 0 510 158 0 c109 0 176 -5 217
-15z"/>
<path d="M1391 2360 c-292 -37 -559 -183 -716 -392 -61 -81 -130 -225 -157
-328 -19 -72 -23 -110 -23 -245 1 -136 4 -173 24 -245 51 -183 133 -322 269
-452 252 -241 614 -325 1021 -237 171 37 383 119 503 195 l38 24 0 520 c0 287
-4 520 -9 520 -5 0 -121 -58 -257 -129 l-249 -129 -3 -246 -2 -246 -38 -16
c-220 -95 -434 -64 -582 85 -93 92 -142 219 -141 363 1 140 47 260 135 351
125 129 296 174 481 127 43 -11 85 -20 93 -20 8 0 129 59 269 131 l254 131
-43 31 c-107 77 -310 161 -468 192 -96 19 -304 27 -399 15z"/>
<path d="M2463 1733 c3 -531 6 -618 21 -683 82 -355 339 -570 740 -620 165
-21 362 -2 509 49 118 41 198 92 293 186 100 100 154 189 196 325 22 74 22 82
26 713 l3 637 -280 0 -280 0 -3 -597 c-3 -546 -5 -602 -21 -643 -42 -107 -112
-169 -219 -196 -81 -21 -154 -13 -235 26 -71 35 -115 81 -152 160 l-26 55 -3
598 -3 597 -285 0 -285 0 4 -607z"/>
<path d="M4370 1390 l0 -950 659 0 659 0 67 168 c38 92 76 188 86 215 l19 47
-460 0 -460 0 0 153 0 152 241 0 242 0 88 215 c49 118 89 216 89 217 0 2 -148
3 -330 3 l-330 0 0 140 0 140 545 0 545 0 0 -725 0 -725 285 0 285 0 0 725 0
725 210 0 210 0 0 -725 0 -725 285 0 285 0 0 725 0 725 231 2 231 3 89 219
c49 121 89 221 89 223 0 1 -869 3 -1930 3 l-1930 0 0 -950z"/>
<path d="M8334 2218 c-26 -68 -66 -172 -90 -233 -23 -60 -120 -310 -214 -555
-95 -245 -199 -515 -232 -600 -33 -85 -77 -200 -98 -255 -21 -55 -41 -108 -45
-118 -7 -16 11 -17 286 -17 l294 1 370 148 c204 82 373 147 376 145 3 -1 29
-68 59 -149 l53 -145 299 0 c180 0 298 4 298 9 0 6 -41 117 -91 248 -50 131
-131 344 -181 473 -98 257 -206 542 -352 920 l-93 245 -296 3 -295 2 -48 -122z
m458 -989 c-9 -8 -315 -130 -317 -126 -3 2 158 436 176 477 10 23 17 8 79
-160 38 -102 66 -188 62 -191z"/>
</g>
</svg>
