<?xml version="1.0" standalone="no"?>
<!DOCTYPE svg PUBLIC "-//W3C//DTD SVG 20010904//EN"
 "http://www.w3.org/TR/2001/REC-SVG-20010904/DTD/svg10.dtd">
<svg version="1.0" xmlns="http://www.w3.org/2000/svg"
 width="420.000000pt" height="420.000000pt" viewBox="0 0 420.000000 420.000000"
 preserveAspectRatio="xMidYMid meet">
<metadata>
Created by potrace 1.15, written by Peter Selinger 2001-2017
</metadata>
<g transform="translate(0.000000,420.000000) scale(0.100000,-0.100000)"
fill="#000000" stroke="none">
<path d="M3195 3878 c-15 -44 -75 -345 -81 -403 -6 -70 8 -322 27 -488 6 -49
9 -90 7 -92 -2 -3 -13 12 -23 33 -26 49 -62 88 -103 114 -33 20 -34 20 -75 2
-46 -21 -90 -62 -114 -109 -23 -42 -90 -206 -120 -293 -14 -40 -27 -71 -29
-69 -2 2 -13 82 -24 178 -11 96 -24 197 -29 224 -6 28 -18 119 -27 203 -10 83
-21 152 -26 152 -4 0 -8 -1 -8 -3 0 -1 -9 -34 -20 -72 -12 -39 -27 -126 -35
-195 -7 -69 -34 -289 -59 -490 -25 -201 -50 -403 -55 -450 -6 -47 -24 -173
-41 -280 -48 -304 -80 -553 -80 -615 0 -32 -9 -119 -19 -194 -11 -75 -24 -186
-31 -248 -11 -111 -11 -111 14 -151 13 -22 32 -57 41 -78 l17 -39 13 36 c7 20
21 124 30 230 9 107 25 246 35 309 11 63 27 173 35 244 9 71 21 138 26 148 11
21 41 17 71 -9 15 -13 19 -13 40 1 29 21 74 21 82 0 7 -18 52 -379 66 -534 9
-90 89 -513 112 -592 16 -55 38 -49 40 10 3 121 -4 294 -17 367 -8 44 -19 121
-25 170 -6 50 -13 105 -16 123 -8 51 12 38 42 -28 28 -63 86 -120 121 -120 11
0 28 -7 39 -15 27 -21 71 -18 95 6 34 34 114 162 133 215 25 64 44 93 50 73 2
-8 9 -75 15 -149 15 -195 68 -429 96 -423 5 1 19 49 32 106 12 57 33 137 47
176 l25 72 -24 202 c-13 111 -29 258 -35 327 -6 69 -15 159 -21 201 -11 84 3
154 31 154 9 0 65 -100 150 -270 74 -149 147 -288 162 -310 36 -55 98 -243 98
-299 0 -63 27 -239 42 -271 12 -27 75 -72 86 -61 10 10 3 1409 -8 1746 -11
328 -27 596 -40 690 -5 36 -18 121 -29 190 -11 69 -22 184 -25 255 -10 193
-24 293 -51 353 -17 38 -29 52 -44 52 -35 0 -48 -38 -55 -155 -12 -227 -38
-353 -130 -631 -47 -143 -86 -266 -86 -275 0 -9 -7 -36 -16 -60 -9 -24 -37
-129 -64 -233 -26 -103 -50 -180 -53 -170 -3 11 -8 66 -12 124 -4 58 -15 145
-26 194 -10 50 -24 137 -29 195 -31 315 -61 681 -66 791 -5 124 -19 205 -35
216 -5 3 -11 -1 -14 -8z m555 -1263 c6 -115 15 -300 21 -410 5 -110 8 -288 7
-395 l-3 -195 -32 65 c-17 36 -45 95 -61 132 -17 36 -40 76 -52 88 -19 19
-100 188 -117 242 -6 20 56 293 102 443 18 61 44 157 58 215 14 58 31 119 38
135 12 29 13 28 20 -40 4 -38 13 -164 19 -280z m-740 117 c26 -13 44 -34 72
-87 46 -89 136 -385 148 -490 13 -106 12 -531 0 -619 -13 -84 -83 -265 -125
-321 -34 -44 -73 -56 -95 -31 -7 9 -19 16 -26 16 -8 0 -32 11 -52 24 -33 21
-44 38 -80 128 -79 198 -102 352 -102 670 1 201 4 250 24 358 13 69 30 142 39
162 31 75 98 178 125 192 33 19 30 19 72 -2z m-431 -655 c29 -208 31 -198 -24
-196 -57 3 -63 21 -42 116 9 38 18 98 22 135 5 63 14 103 20 96 2 -2 13 -70
24 -151z"/>
<path d="M3066 2518 c-8 -18 -18 -49 -23 -68 l-9 -34 -34 59 c-27 48 -35 56
-38 38 -2 -12 9 -56 23 -98 25 -72 26 -81 16 -157 -6 -45 -11 -97 -11 -117 1
-34 2 -35 15 -17 8 11 18 41 21 68 4 27 10 51 14 53 4 3 17 -15 29 -39 11 -25
25 -47 31 -51 19 -12 11 54 -15 117 -23 56 -24 66 -14 122 16 92 22 156 15
156 -3 0 -13 -15 -20 -32z"/>
<path d="M2894 2285 c-7 -19 -14 -36 -14 -38 0 -3 -7 -21 -16 -42 l-15 -38
-26 38 c-19 27 -28 34 -34 24 -10 -18 0 -66 23 -106 17 -28 19 -44 12 -138 -8
-120 7 -145 28 -45 6 33 15 60 20 60 4 0 16 -16 26 -36 11 -21 22 -32 26 -26
8 13 -10 95 -29 132 -13 25 -13 34 0 77 17 55 31 173 21 173 -4 0 -14 -16 -22
-35z"/>
<path d="M3103 1891 c-18 -10 -48 -30 -67 -45 -19 -14 -39 -26 -43 -26 -5 0
-20 -13 -33 -30 -14 -16 -33 -29 -42 -30 -18 0 -98 -97 -98 -118 0 -13 57 -5
77 10 15 12 25 -8 48 -97 10 -38 22 -74 26 -79 5 -6 9 44 9 115 l0 125 31 27
c42 36 52 27 86 -81 l27 -87 7 45 c4 25 7 80 7 122 -2 82 11 113 42 103 24 -8
32 18 14 44 -18 25 -48 26 -91 2z"/>
<path d="M1812 3473 c-6 -16 -15 -44 -21 -63 -18 -65 -98 -484 -109 -575 -6
-49 -20 -155 -31 -235 -29 -214 -84 -828 -92 -1028 -1 -42 -20 37 -28 121 -5
51 -16 151 -25 222 -9 72 -23 193 -31 270 -9 77 -20 165 -25 195 -5 30 -14 99
-20 154 -5 54 -17 151 -25 215 -8 64 -19 195 -25 291 -13 220 -19 275 -34 296
-11 15 -18 7 -55 -62 l-43 -78 7 -96 c3 -52 13 -168 21 -258 18 -186 16 -209
-24 -217 -15 -3 -45 -10 -67 -16 -22 -6 -56 -13 -75 -16 -57 -8 -98 -49 -108
-108 -19 -116 1 -1086 28 -1325 5 -47 14 -141 20 -210 14 -158 17 -170 36
-170 9 0 33 17 54 38 21 20 63 55 94 77 91 65 149 206 104 252 -13 12 -20 14
-31 5 -7 -6 -23 -9 -35 -5 -13 3 -36 -3 -56 -15 -32 -19 -35 -19 -49 -4 -29
32 -39 99 -44 288 -4 137 -2 197 6 213 7 12 37 38 66 57 30 19 59 43 65 54 6
11 19 20 30 20 30 0 52 43 58 115 2 35 8 63 12 60 7 -4 10 -34 35 -330 8 -93
26 -287 40 -430 14 -143 28 -307 31 -365 6 -118 52 -352 68 -347 12 4 15 20
52 272 39 275 82 658 99 880 14 192 47 515 64 640 6 39 9 -74 10 -330 1 -631
10 -1036 22 -1052 16 -18 32 -16 61 6 17 14 38 19 70 18 39 -2 50 3 79 31 18
17 40 32 50 32 9 0 33 18 53 40 36 40 36 40 36 134 0 52 -3 101 -6 110 -8 20
-33 21 -40 1 -4 -9 -19 -15 -39 -15 -19 0 -40 -7 -49 -15 -8 -8 -19 -15 -24
-15 -6 0 -12 -7 -16 -15 -9 -24 -53 -19 -62 8 -4 12 -7 154 -6 316 1 330 -2
315 79 352 38 17 44 25 60 77 22 73 23 140 3 152 -8 5 -41 12 -73 16 -31 4
-59 9 -61 13 -2 3 -6 121 -7 260 -3 179 0 256 7 258 6 2 33 24 60 48 27 25 52
45 57 45 5 0 24 14 42 31 30 29 33 37 39 114 8 101 -2 125 -53 125 -18 0 -50
-10 -70 -22 -20 -13 -62 -28 -93 -34 l-58 -11 0 31 c0 17 7 69 15 116 15 84
21 353 9 398 -8 30 -19 28 -32 -5z m-492 -1163 c0 -30 7 -102 15 -160 19 -142
19 -143 -4 -129 -10 7 -25 9 -32 5 -26 -13 -57 -32 -70 -43 -8 -6 -30 -13 -49
-15 l-35 -3 -7 145 c-7 153 -5 180 17 180 7 0 15 7 19 15 3 8 12 15 20 15 8 0
16 4 18 10 2 5 23 20 48 33 54 29 60 23 60 -53z"/>
<path d="M528 3160 c-9 -10 -39 -67 -67 -127 -37 -80 -54 -133 -66 -203 -9
-52 -22 -122 -29 -155 -7 -33 -30 -139 -50 -235 -21 -96 -49 -213 -62 -260
-36 -122 -66 -321 -61 -406 5 -91 33 -152 82 -178 36 -19 37 -20 71 -1 20 10
56 43 82 73 62 73 142 136 155 123 7 -7 3 -46 -12 -118 -12 -59 -30 -174 -41
-256 -21 -154 -53 -328 -70 -372 -28 -73 -181 -713 -178 -739 5 -34 24 -28 53
16 16 24 38 52 51 63 26 23 44 67 74 180 11 44 29 105 40 135 59 173 143 461
164 565 30 146 53 246 59 251 6 6 17 -109 27 -291 5 -88 14 -191 19 -230 6
-38 10 -96 11 -127 0 -32 4 -58 9 -58 11 0 37 55 56 118 12 37 15 122 15 402
0 195 5 528 11 740 11 413 15 436 65 459 14 6 33 29 43 53 10 24 43 68 74 98
51 51 55 59 62 115 4 33 11 78 16 100 13 60 11 101 -6 115 -12 10 -25 8 -68
-14 -30 -14 -57 -26 -60 -26 -21 0 -111 -78 -128 -111 -17 -34 -24 -39 -55
-39 -29 0 -74 -19 -94 -40 -3 -3 -27 -16 -55 -29 -64 -32 -71 -39 -85 -92 -7
-24 -21 -61 -31 -81 -28 -56 -24 -129 14 -205 10 -23 41 -31 51 -14 8 13 84
51 101 51 13 0 15 -26 15 -159 0 -97 -4 -162 -10 -166 -6 -4 -24 1 -42 9 -65
33 -84 25 -202 -86 -27 -27 -55 -48 -62 -48 -30 0 -29 4 40 320 14 63 39 189
56 279 17 91 37 176 45 190 7 14 27 76 44 136 18 61 43 134 57 164 13 29 24
71 24 92 l0 39 -67 -1 c-53 0 -72 -5 -85 -19z"/>
</g>
</svg>
