<?xml version="1.0" standalone="no"?>
<!DOCTYPE svg PUBLIC "-//W3C//DTD SVG 20010904//EN"
 "http://www.w3.org/TR/2001/REC-SVG-20010904/DTD/svg10.dtd">
<svg version="1.0" xmlns="http://www.w3.org/2000/svg"
 width="750.000000pt" height="129.000000pt" viewBox="0 0 750.000000 129.000000"
 preserveAspectRatio="xMidYMid meet">
<metadata>
Created by potrace 1.15, written by Peter Selinger 2001-2017
</metadata>
<g transform="translate(0.000000,129.000000) scale(0.100000,-0.100000)"
fill="#000000" stroke="none">
<path d="M544 898 l-169 -363 -80 -11 c-91 -14 -122 -24 -181 -62 -34 -21 -84
-86 -84 -108 0 -2 21 -4 48 -4 48 -1 178 -23 188 -32 3 -3 -20 -59 -50 -125
-31 -66 -56 -123 -56 -126 0 -4 68 -7 150 -7 l151 0 39 86 c39 83 41 86 68 79
15 -3 122 -44 238 -91 253 -100 289 -109 374 -94 34 6 73 15 86 20 28 11 100
84 119 121 l14 26 -62 5 c-34 3 -82 11 -106 19 -42 12 -45 16 -86 103 -23 50
-129 278 -235 506 -106 228 -193 416 -195 417 -1 2 -78 -160 -171 -359z m220
-390 c20 -48 39 -94 42 -102 5 -12 -12 -9 -70 12 -41 15 -78 31 -82 35 -4 3 8
40 27 82 18 41 36 72 39 68 4 -5 23 -47 44 -95z"/>
<path d="M3584 1135 c-324 -70 -512 -423 -394 -738 94 -251 356 -399 612 -346
73 15 183 70 240 119 57 50 128 154 158 235 31 83 38 236 15 325 -54 209 -233
378 -435 410 -82 13 -120 12 -196 -5z m234 -302 c160 -99 180 -325 39 -449
-133 -117 -325 -71 -401 96 -25 57 -27 168 -2 223 31 71 101 134 176 158 48
16 139 3 188 -28z"/>
<path d="M6130 1139 c-30 -5 -91 -27 -135 -48 -337 -166 -411 -624 -144 -892
102 -103 236 -159 377 -159 108 0 273 54 255 83 -4 7 -42 57 -83 110 -72 94
-76 97 -105 90 -52 -14 -132 -6 -180 17 -93 45 -150 143 -149 255 1 116 54
204 150 251 50 24 62 26 134 21 l79 -5 82 104 c94 120 94 116 -19 154 -75 24
-185 33 -262 19z"/>
<path d="M5046 634 c-126 -280 -235 -524 -243 -541 l-13 -33 140 0 141 0 26
58 c14 31 27 59 29 61 2 2 81 -24 177 -58 l172 -62 141 3 141 3 -231 515
c-127 284 -236 526 -241 539 -10 21 -38 -36 -239 -485z"/>
<path d="M1430 595 l0 -535 140 0 140 0 0 185 0 185 75 0 75 0 89 113 89 112
-164 3 -164 2 0 110 0 110 223 2 222 3 3 123 3 122 -366 0 -365 0 0 -535z"/>
<path d="M2240 596 l0 -536 135 0 135 0 2 413 3 412 93 3 c143 4 192 -30 192
-133 0 -64 -16 -95 -113 -220 l-85 -109 70 -91 c39 -49 102 -132 142 -182 l71
-93 143 0 c78 0 142 2 142 5 0 3 -62 85 -137 182 -124 160 -135 178 -118 187
49 29 104 91 131 149 26 57 29 72 29 177 0 110 -1 118 -33 183 -38 77 -90 123
-180 159 -53 21 -75 22 -339 26 l-283 4 0 -536z"/>
<path d="M4510 760 c0 -398 -2 -420 -51 -454 -31 -22 -84 -20 -138 4 -24 11
-45 19 -46 18 -1 -2 -35 -45 -75 -97 -83 -106 -84 -100 15 -147 72 -34 148
-47 242 -41 183 11 297 115 323 294 5 38 10 231 10 431 l0 362 -140 0 -140 0
0 -370z"/>
<path d="M6570 595 l0 -535 140 0 140 0 0 181 0 181 141 -181 140 -181 170 0
169 0 -193 248 c-107 136 -200 256 -207 268 -12 19 2 42 174 281 102 143 186
263 186 267 0 3 -75 5 -167 4 l-167 -3 -120 -168 -121 -168 -3 171 -2 170
-140 0 -140 0 0 -535z"/>
</g>
</svg>
