<?xml version="1.0" standalone="no"?>
<!DOCTYPE svg PUBLIC "-//W3C//DTD SVG 20010904//EN"
 "http://www.w3.org/TR/2001/REC-SVG-20010904/DTD/svg10.dtd">
<svg version="1.0" xmlns="http://www.w3.org/2000/svg"
 width="600.000000pt" height="281.000000pt" viewBox="0 0 600.000000 281.000000"
 preserveAspectRatio="xMidYMid meet">
<metadata>
Created by potrace 1.15, written by Peter Selinger 2001-2017
</metadata>
<g transform="translate(0.000000,281.000000) scale(0.100000,-0.100000)"
fill="#000000" stroke="none">
<path d="M0 1405 l0 -1405 3000 0 3000 0 0 1405 0 1405 -3000 0 -3000 0 0
-1405z m4898 -37 l-3 -763 -1852 -3 -1853 -2 0 765 0 765 1855 0 1855 0 -2
-762z"/>
<path d="M1270 1370 l0 -690 1775 0 1775 0 1 670 c1 369 2 678 3 688 1 16 -91
17 -1776 20 l-1778 2 0 -690z m666 185 c68 -192 123 -356 123 -363 1 -10 -25
-12 -111 -10 l-112 3 -17 45 -17 45 -108 0 -109 0 -22 -47 -23 -48 -103 0
c-57 0 -106 2 -109 5 -2 3 52 167 121 365 l124 361 121 -3 120 -3 122 -350z
m669 341 c103 -31 150 -122 125 -243 -10 -45 -21 -66 -50 -96 l-38 -37 29 -15
c40 -21 61 -68 66 -145 2 -36 5 -91 7 -122 l4 -58 -96 0 c-54 0 -102 4 -108 8
-24 15 -34 54 -34 126 0 103 -13 116 -115 116 l-74 0 -3 -122 -3 -123 -115 0
-115 0 -3 363 -2 362 238 0 c180 0 251 -4 287 -14z m545 -116 c15 -69 35 -164
45 -212 10 -49 20 -88 24 -88 3 0 19 66 34 148 16 81 36 177 44 215 l15 67
157 -2 156 -3 0 -360 0 -360 -102 -3 -103 -3 -2 218 -3 218 -22 -85 c-12 -47
-34 -134 -48 -195 -38 -165 -29 -155 -129 -155 l-84 0 -10 33 c-6 17 -30 115
-54 217 l-43 185 -5 -215 -5 -215 -102 -3 -103 -3 0 366 0 366 157 -3 157 -3
26 -125z m808 -232 l-3 -363 -117 -3 -118 -3 0 366 0 365 120 0 120 0 -2 -362z
m441 156 l106 -202 5 202 5 201 108 3 107 3 0 -366 0 -366 -115 2 c-63 1 -118
5 -123 8 -4 3 -31 51 -59 106 -29 55 -77 147 -107 205 l-55 105 -3 -210 -3
-210 -105 0 -105 0 -3 363 -2 363 121 -3 122 -3 106 -201z m-1564 -588 c57
-24 76 -93 38 -144 l-20 -27 21 -28 c27 -37 27 -108 -1 -145 -20 -27 -21 -27
-162 -30 l-141 -3 0 196 0 195 115 0 c77 0 127 -5 150 -14z m597 -128 c3 -112
5 -121 26 -139 19 -15 28 -17 45 -7 12 6 25 16 29 22 4 6 8 64 8 129 l0 117
60 0 60 0 0 -125 c0 -143 -10 -180 -60 -215 -49 -35 -150 -39 -210 -8 -25 13
-51 34 -57 48 -8 16 -13 73 -13 162 l0 137 43 3 c23 2 47 2 54 0 8 -2 12 -43
15 -124z m-1954 84 c5 -15 18 -62 27 -105 10 -43 21 -74 25 -70 4 5 15 40 25
78 32 123 39 135 84 135 75 0 75 6 9 -191 l-60 -180 -61 3 -60 3 -59 174 c-32
95 -56 176 -54 180 2 3 29 4 59 3 49 -3 56 -7 65 -30z m479 -147 c34 -99 63
-181 63 -182 0 -2 -26 -3 -58 -3 -53 0 -60 2 -70 25 -10 22 -18 25 -67 25 -50
0 -55 -2 -61 -25 -6 -23 -11 -25 -66 -25 -53 0 -59 2 -53 18 3 9 28 80 55 157
77 221 60 196 132 193 l62 -3 63 -180z m258 85 c27 -55 53 -100 57 -100 4 0 8
45 8 100 l0 100 55 0 55 0 0 -185 0 -185 -62 0 -63 0 -55 103 -55 102 -3 -102
-3 -103 -54 0 -55 0 0 185 0 185 63 0 63 0 49 -100z m825 -15 c0 -110 1 -117
25 -141 21 -21 28 -23 47 -13 13 7 26 17 30 23 4 6 8 64 8 129 l0 117 60 0 60
0 0 -127 c0 -154 -11 -186 -80 -221 -37 -20 -56 -23 -111 -19 -40 2 -76 11
-93 22 -48 32 -56 61 -56 210 l0 135 55 0 55 0 0 -115z m951 86 c43 -43 38
-122 -9 -157 -14 -10 -13 -13 6 -23 21 -11 26 -27 36 -119 l4 -43 -56 3 -57 3
-8 50 c-11 64 -22 77 -66 73 l-36 -3 -3 -63 -3 -63 -57 3 -57 3 -3 183 -2 182
141 0 141 0 29 -29z m361 -53 c-4 -4 -43 -8 -87 -10 -72 -3 -80 -5 -80 -23 0
-18 8 -20 73 -23 l73 -3 -3 -42 -3 -42 -72 -3 c-70 -3 -73 -4 -73 -27 0 -25 1
-25 84 -25 l84 0 4 -41 c2 -22 2 -42 -1 -45 -2 -2 -69 -4 -148 -4 l-143 0 0
180 0 179 143 3 142 3 7 -35 c3 -19 3 -38 0 -42z m210 -18 c29 -55 56 -100 61
-100 4 0 7 45 7 100 l0 100 50 0 50 0 0 -185 0 -185 -59 0 -59 0 -54 103 -53
102 -3 -102 -3 -103 -54 0 -55 0 0 178 c0 98 3 182 7 185 3 4 30 7 59 7 l53 0
53 -100z"/>
<path d="M1690 1670 c0 -3 -14 -54 -30 -114 -16 -61 -26 -114 -24 -118 6 -9
108 -11 116 -3 3 3 -7 54 -23 113 -29 108 -36 131 -39 122z"/>
<path d="M2320 1670 l0 -70 84 0 c99 0 116 11 116 70 0 56 -25 70 -122 70
l-78 0 0 -70z"/>
</g>
</svg>
